<svg xmlns="http://www.w3.org/2000/svg" style="display: none;">
  
    <symbol id="continuousphp-icon-git-hub" viewBox="0 0 512 512">
      <path d="m423 61c59 52 89 117 89 195 0 39-8 75-24 110-32 66-82 110-151 132-1 0-2 0-3 0-9 1-14-3-14-11l0-71c0-20-6-36-18-47 6-1 13-2 19-3 65-12 98-53 98-124 0-26-9-49-26-68 8-20 7-43-2-68l-7 0c-5-1-13 1-25 5-11 5-24 12-39 22-19-6-40-9-64-9-23 0-44 3-64 9-17-12-33-20-49-24l-21-3c-10 24-11 47-3 68-16 18-25 41-26 68 0 13 2 25 4 37 11 53 48 83 113 90-9 7-14 19-17 34-32 15-57 8-74-21-9-17-23-25-40-26-13 0-14 5-1 15l4 3c3 2 7 6 12 12 5 6 9 14 12 22l7 13c3 8 12 15 27 20 14 6 32 6 52 2 0 9 0 20 1 33 0 5 0 9 0 11-1 8-6 12-18 11-30-10-59-26-85-49-60-50-90-114-90-193 0-62 20-118 61-166 52-60 117-90 195-90 62 0 118 20 167 61z"/>
    </symbol>
  
    <symbol id="continuousphp-icon-paperclip" viewBox="0 0 512 512">
      <path d="m142 508c-33 0-65-14-88-37-44-44-56-121 6-183 36-36 181-181 253-254 26-25 59-35 90-27 31 8 56 34 64 64 9 32-1 64-27 90l-242 243c-14 13-30 22-46 23-15 2-30-3-40-13-19-19-22-55 9-86l171-171c7-7 18-7 25 0 7 7 7 19 0 26l-170 170c-15 15-16 29-10 35 3 3 7 4 12 4 7-1 15-6 23-14l243-242c17-17 23-36 18-55-5-19-20-34-39-39-19-5-39 1-55 18-73 72-218 217-254 253-47 48-36 102-5 132 30 31 85 42 132-5l254-254c7-7 18-7 25 0 7 7 7 19 0 26l-254 253c-30 30-63 43-95 43z"/>
    </symbol>
  
    <symbol id="continuousphp-icon-clock" viewBox="0 0 512 512">
      <path d="m256 21c-130 0-235 105-235 235 0 130 105 236 235 236 130 0 236-106 236-236 0-130-106-235-236-235z m0 419c-102 0-184-82-184-184 0-102 82-184 184-184 102 0 185 82 185 184 0 102-83 184-185 184z m18-317l-36 0 0 140 87 88 26-26-77-76z"/>
    </symbol>
  
    <symbol id="continuousphp-icon-settings" viewBox="0 0 512 512">
      <path d="m467 305c-27-46-11-106 36-133l-50-87c-15 8-31 13-49 13-54 0-98-44-98-98l-100 0c0 17-4 34-13 49-27 47-87 62-134 36l-50 87c15 8 27 20 36 35 27 47 11 106-36 134l50 87c15-9 31-13 49-13 54 0 97 43 97 97l101 0c0-17 4-33 13-49 27-46 86-62 133-35l51-87c-15-8-27-21-36-36z m-211 55c-57 0-104-47-104-104 0-57 47-104 104-104 57 0 104 47 104 104 0 57-47 104-104 104z"/>
    </symbol>
  
    <symbol id="continuousphp-icon-share" viewBox="0 0 512 512">
      <path d="m448 384c-16 0-29 6-40 15l-98-69c6-13 10-27 10-42 0-21-7-40-18-55l114-115c10 6 20 10 32 10 35 0 64-29 64-64 0-35-29-64-64-64-35 0-64 29-64 64 0 12 4 22 10 32l-114 114c-16-11-35-18-56-18-37 0-68 21-84 51l-77-26c-3-14-16-25-31-25-18 0-32 14-32 32 0 18 14 32 32 32 8 0 15-3 21-8l77 25c-1 5-2 10-2 15 0 53 43 96 96 96 26 0 50-11 68-28l97 69c-3 7-5 15-5 23 0 35 29 64 64 64 35 0 64-29 64-64 0-35-29-64-64-64z"/>
    </symbol>
  
    <symbol id="continuousphp-icon-user" viewBox="0 0 512 512">
      <path d="m392 370c70 24 105 45 105 62c0 0 0 54 0 54c0 0-241 0-241 0c0 0-241 0-241 0c0 0 0-54 0-54c0-17 35-38 105-62c32-12 54-24 65-36c12-12 18-28 18-48c0-8-4-16-12-25c-7-10-12-22-16-38c-1-4-2-7-5-9c-2-2-4-3-7-4c-2-1-4-4-7-9c-2-5-4-12-4-22c0-5 0-10 2-13c2-4 3-6 5-6c0 0 2-2 2-2c-3-17-5-32-6-45c-2-19 5-38 21-58c15-19 42-29 80-29c38 0 65 10 81 29c16 20 22 39 20 58c0 0-6 45-6 45c6 2 9 10 9 21c0 10-2 17-4 22c-3 5-5 8-7 9c-3 1-5 2-7 4c-3 2-4 5-5 9c-3 17-8 29-16 38c-8 9-12 17-12 25c0 20 6 36 18 48c12 12 34 24 65 36"/>
    </symbol>
  
    <symbol id="continuousphp-icon-users" viewBox="0 0 512 512">
      <path d="m512 481c0 0-115 0-115 0c0 0 0-77 0-77c0-18-5-32-15-41c-10-9-37-24-79-46c14-10 21-24 21-43c0-5-3-11-7-16c-5-6-8-15-10-27c0-2-3-5-7-8c-4-2-6-10-7-21c0-8 2-14 6-16c-2-11-3-21-4-30c-1-13 2-27 12-40c9-14 25-21 48-21c24 0 40 7 49 21c10 13 14 27 13 40c0 0-4 30-4 30c4 2 6 8 6 16c-1 11-3 19-7 21c-4 3-7 6-8 8c-2 12-5 21-9 27c-5 5-7 11-7 16c0 15 4 26 11 34c7 8 20 17 39 25c39 16 61 29 67 41c2 2 3 13 4 31c1 18 2 35 3 52c0 0 0 24 0 24m-250-134c62 27 93 48 93 64c0 0 0 70 0 70c0 0-355 0-355 0c0 0 0-94 0-94c0-15 14-28 43-40c26-11 44-22 53-33c10-11 15-26 15-45c0-7-4-14-10-22c-7-8-11-20-13-35c-1-3-4-7-9-11c-6-4-9-14-10-29c0-5 0-9 1-12c1-3 2-5 4-6c0 0 2-1 2-1c-2-16-4-30-5-42c-2-17 4-35 17-53c12-18 34-27 65-27c30 0 52 9 65 27c12 18 18 36 16 53c0 0-5 42-5 42c5 2 8 9 8 19c-2 15-5 25-11 29c-5 4-8 8-9 11c-2 15-6 27-13 35c-6 8-9 15-9 22c0 19 4 34 14 45c9 11 27 22 53 33"/>
    </symbol>
  
    <symbol id="continuousphp-icon-mail" viewBox="0 0 512 512">
      <path d="m41 135c-11-6-16-13-14-20c0-5 5-7 13-7c0 0 433 0 433 0c13 0 16 5 10 16c-2 5-6 8-12 11c-5 2-38 20-98 52c-61 33-92 50-93 51c-6 3-14 5-24 5c-10 0-17-2-24-5c-1-1-32-18-93-51c-60-32-93-50-98-52m435 51c7-3 10-1 10 5c0 0 0 189 0 189c0 5-2 11-8 16c-6 6-12 8-17 8c0 0-410 0-410 0c-5 0-11-2-17-8c-5-5-8-11-8-16c0 0 0-189 0-189c0-6 3-8 10-5c0 0 196 103 196 103c7 3 14 5 24 5c10 0 17-2 24-5c0 0 196-103 196-103"/>
    </symbol>
  
    <symbol id="continuousphp-icon-location" viewBox="0 0 512 512">
      <path d="m256 51c36 0 66 13 91 38c25 24 37 55 37 90c0 36-11 78-32 125c-21 46-42 84-64 114c0 0-32 43-32 43c-3-4-8-10-14-18c-6-8-16-23-31-46c-14-22-27-44-38-66c-12-22-22-47-31-76c-9-28-14-53-14-76c0-35 12-66 37-90c25-25 56-38 91-38m0 199c19 0 36-7 49-21c14-13 21-30 21-49c0-19-7-35-21-48c-13-14-30-20-49-20c-19 0-35 6-49 20c-13 13-20 29-20 48c0 19 7 36 20 49c14 14 30 21 49 21"/>
    </symbol>
  
    <symbol id="continuousphp-icon-link" viewBox="0 0 512 512">
      <path d="m403 109c-39-38-101-40-141-3l0 0l-52 51c-9 10-16 20-21 32c-10 4-20 10-28 18l0-1l-52 52c-40 40-40 105 0 145c40 40 105 40 145 0l52-52l-1 0c8-8 14-18 18-28c12-5 22-12 32-21l52-52l-1 0c37-40 35-102-3-141z m-184 257l0 0c-20 20-53 20-73 0c-20-20-20-53 0-73l38-38c4 17 13 33 26 47c14 13 30 22 47 26z m28-101c-9-9-14-21-15-33c12 1 24 6 33 15c9 9 14 21 15 33c-12-1-24-6-33-15z m122-49l-3 3l0 0l-38 38c-4-17-13-33-26-47c-14-13-30-22-47-26l38-38c0 0 0 0 0 0l0 0l3-3l0 0c21-17 51-16 70 3c19 19 20 49 3 70z"/>
    </symbol>
  
    <symbol id="continuousphp-icon-branch" viewBox="0 0 512 512">
      <path d="m420 102c0 28-13 46-38 57c-2 20-7 37-14 51c-8 15-18 27-32 36c-13 9-25 15-34 19c-10 4-23 9-39 14c-14 4-25 8-32 11c-7 3-15 7-24 12c-9 6-16 12-20 21c-4 8-6 18-8 30c24 11 36 29 36 57c0 17-6 31-18 43c-12 12-26 18-43 18c-17 0-32-6-44-18c-12-12-18-26-18-43c0-27 12-46 37-58c0 0 0-193 0-193c-25-12-37-31-37-57c0-17 6-31 18-43c12-12 27-18 44-18c17 0 31 6 43 18c12 12 18 26 18 43c0 26-12 45-37 57c0 0 0 104 0 104c14-10 37-20 71-31c20-6 34-11 43-14c9-4 17-11 26-21c8-11 13-24 15-39c-24-11-36-30-36-56c0-17 6-31 18-43c12-12 26-18 43-18c17 0 32 6 44 18c12 12 18 26 18 43m-301 0c0 10 3 18 10 25c7 7 15 10 25 10c9 0 18-3 25-10c7-7 10-15 10-25c0-10-3-18-10-25c-7-7-16-10-25-10c-10 0-18 3-25 10c-7 7-10 15-10 25m35 342c9 0 18-3 25-10c7-7 10-15 10-24c0-11-3-19-10-26c-7-7-16-10-25-10c-10 0-18 3-25 10c-7 7-10 15-10 26c0 9 3 17 10 24c7 7 15 10 25 10m204-307c10 0 18-3 25-10c8-7 11-15 11-25c0-10-3-18-11-25c-7-7-15-10-25-10c-9 0-17 3-24 10c-7 7-10 15-10 25c0 10 3 18 10 25c7 7 15 10 24 10"/>
    </symbol>
  
    <symbol id="continuousphp-icon-tag" viewBox="0 0 512 512">
      <path d="m224 32l-128 0-64 64 0 128 256 256 192-192z m-160 176l0-96 48-48 96 0 224 224-144 144z m192-48l-96 96 128 128 96-96z m-48 96l48-48 80 80-48 48z m-16-112c0-26-21-48-48-48-26 0-48 22-48 48 0 27 22 48 48 48 27 0 48-21 48-48z m-48 16c-9 0-16-7-16-16 0-9 7-16 16-16 9 0 16 7 16 16 0 9-7 16-16 16z"/>
    </symbol>
  
    <symbol id="continuousphp-icon-wrench" viewBox="0 0 512 512">
      <path d="m442 120l-20 20l-19 19l-25 24c-13 1-26-4-36-13c-9-10-14-23-13-36l63-64c1-1 1-3 0-4c0-1 0-1-1-1l0 0c0 0 0 0 0 0c0 0 0 0 0 0c-14-6-29-10-45-10c-61 0-111 50-111 111c0 12 2 23 6 33l-116 116c-39 1-70 32-70 71c0 39 32 71 71 71c39 0 70-31 71-70l116-116c10 4 21 6 33 6c61 0 111-50 111-111c0-16-4-31-10-45c0 0 0 0 0 0c0 0 0-1 0-1l0 0c0 0-1 0-1 0c-1-1-3-1-4 0z m-286 266c0 16-14 29-30 29c-16 0-29-13-29-29c0-16 13-30 29-30c16 0 30 14 30 30z"/>
    </symbol>
  
    <symbol id="continuousphp-icon-pencil" viewBox="0 0 512 512">
      <path d="m455 150l-93-93c-5-5-14-5-20 0l-253 254l1 0l-1 0l-35 130l0 0c-2 4 0 10 3 14c5 4 11 5 16 2l0 0l128-34l0 0l0 0l254-254c5-5 5-14 0-19z m-359 265l21-76l56 56z"/>
    </symbol>
  
    <symbol id="continuousphp-icon-duration" viewBox="0 0 512 512">
      <path d="m399 117c0 15-8 31-24 49c-17 18-33 35-50 51c-17 16-25 29-25 39c0 10 8 23 25 39c17 16 33 32 50 50c16 17 24 34 24 49c0 0 0 61 0 61c0 11-14 24-44 37c-29 13-62 20-99 20c-37 0-70-7-99-20c-30-13-44-26-44-37c0 0 0-61 0-61c0-15 8-32 24-49c17-18 33-34 50-50c17-16 25-29 25-39c0-10-8-23-25-39c-17-16-33-33-50-51c-16-18-24-34-24-49c0 0 0-61 0-61c0-11 14-23 44-36c30-13 63-20 99-20c36 0 69 7 99 20c30 13 44 25 44 36c0 0 0 61 0 61m-246-58c0 0-10 8-10 8c-1 2 0 5 2 7c32 17 69 26 111 26c45 0 83-8 113-25c4-4 2-9-9-16c-32-18-67-27-103-27c-41 0-76 9-104 27m116 197c0-6 1-12 2-17c2-5 5-11 10-17c4-6 8-10 10-13c2-2 7-7 16-15c8-9 13-13 15-15c31-31 47-52 47-62c0 0 1-26 1-26c-34 19-72 28-114 28c-42 0-80-9-114-28c0 0 2 26 2 26c0 11 16 31 46 62c3 2 6 6 12 11c5 5 9 9 12 11c0 0 9 10 9 10c0 0 3 4 9 11c6 7 8 10 6 10c-2 0-1 4 4 12c5 8 6 12 2 12c0 3 0 7-1 10c0 3-1 6-3 9c-2 3-3 6-4 8c-1 3-3 5-6 9c0 0-6 8-6 8c0 0-2 2-7 8c-6 5-8 8-9 7c0 0-3 3-9 9c-6 5-9 8-9 8c-30 30-46 51-46 62c0 0 0 34 0 34c3-1 14-5 34-12c20-6 36-14 47-22c12-8 18-18 18-29c0-11 4-16 13-16c9 0 13 5 13 16c0 11 6 21 17 29c11 8 28 16 48 22c21 7 33 11 35 12c0 0 0-34 0-34c0-10-16-31-47-62c-2-2-5-5-11-10c-6-6-10-10-11-11c-2-2-5-5-10-10c-4-5-7-8-9-11c-2-3-4-6-6-10c-2-5-4-8-5-12c0-4-1-8-1-12"/>
    </symbol>
  
    <symbol id="continuousphp-icon-terminal" viewBox="0 0 512 512">
      <path d="m448 64l-384 0c-18 0-32 14-32 32l0 320c0 17 14 32 32 32l384 0c17 0 32-15 32-32l0-320c0-18-15-32-32-32z m-352 224l64-64-64-64 32-32 96 96-96 96z m256 32l-128 0 0-32 128 0z"/>
    </symbol>
  
    <symbol id="continuousphp-icon-forward" viewBox="0 0 512 512">
      <path d="m302 306c-72 0-128 8-170 23c-42 16-77 49-106 101c1-7 3-16 6-27c3-11 12-31 26-60c14-29 30-54 49-76c19-22 45-42 80-60c34-18 73-27 115-27c0 0 0-98 0-98c0 0 184 165 184 165c0 0-184 171-184 171c0 0 0-112 0-112"/>
    </symbol>
  
    <symbol id="continuousphp-icon-reply" viewBox="0 0 512 512">
      <path d="m486 430c-29-52-64-85-106-101c-42-15-98-23-169-23c0 0 0 112 0 112c0 0-185-171-185-171c0 0 185-165 185-165c0 0 0 98 0 98c31 0 59 5 86 14c27 9 49 21 67 36c18 15 35 31 49 49c15 17 27 35 36 53c8 18 16 34 22 48c6 15 10 27 12 36c0 0 3 14 3 14"/>
    </symbol>
  
    <symbol id="continuousphp-icon-stash" viewBox="0 0 512 512">
      <path d="m316 254c0-33-27-60-60-60-33 0-60 27-60 60 0 33 27 60 60 60 33 0 60-27 60-60z m134 150l-31-18c-4-2-9-2-12 2-38 43-94 67-151 67-57 0-112-24-150-67-4-4-8-5-12-2l-31 18c-3 1-5 4-5 7 0 2 0 5 2 7 49 59 121 92 196 92 76 0 148-33 196-92 2-2 3-5 2-7 0-3-2-6-4-7z m-163-1c1 0 1 0 2-1 69-15 119-78 119-148 0-16-2-31-7-46-1-3-3-5-6-7-3-1-6-1-9 1l-19 11c-4 2-6 7-4 11 2 10 3 20 3 29 0 51-33 95-82 107-5 1-8 6-8 10l0 22c0 3 2 6 4 8 2 2 4 3 7 3z m-31-301c-43 0-84 18-112 49-2 3-3 6-3 9 1 3 3 6 5 7l19 11c1 1 3 1 5 1 3 0 5-1 7-3 21-21 49-33 79-33 30 0 57 12 78 33 3 3 9 4 13 2l18-11c3-1 5-4 5-7 1-3 0-7-2-9-29-31-69-49-112-49z m-191 216c-7-21-11-42-11-64 0-95 68-178 162-197 4-2 7-5 7-10l0-36c0-3-1-5-3-7-2-2-5-3-8-2-123 21-212 127-212 252 0 30 5 60 16 88 1 3 3 5 5 6 1 0 2 0 3 0 2 0 4 0 5-1l31-18c4-2 6-7 5-11z m79-105l-19-10c-2-2-6-2-8-1-3 1-6 4-6 7-5 15-7 30-7 45 0 71 50 134 119 149 0 0 1 1 2 1 2 0 4-1 6-3 3-2 4-5 4-8l0-21c0-5-3-9-8-10-48-13-82-57-82-107 0-10 1-20 4-29 2-6-1-10-5-13z m156-211c-3-1-6 0-8 2-2 2-3 4-3 7l0 36c0 5 3 9 7 10 94 19 162 102 162 197 0 22-4 43-11 64-1 4 1 9 5 11l31 18c1 1 3 1 5 1 1 0 2 0 3 0 2-1 4-3 5-6 11-28 16-58 16-88 0-125-89-231-212-252z"/>
    </symbol>
  
    <symbol id="continuousphp-icon-continuousphp" viewBox="0 0 512 512">
      <path d="m324 364l40 0 0 40-40 0z m-29 0l25 0 0 40-25 0z m29-46l40 0 0 39-40 0z m-204-47l244 0 0 40-244 0z m-15-46l167 0 0 40-167 0z m6-44l161 0 0 40-161 0z m0-45l161 0 0 40-161 0z m-80 63l72 0 0 15-72 0z m-31-12l26 0 0 27-26 0z m278-43l86 0 0 101-86 0z m94 0l105 0 0 121-105 0z m89 147l31 0 0 100-31 0z m-183-183l86 0 0 31-86 0z m0 145l86 0 0 12-86 0z m166 15l48 0 0 20-48 0z m37-50l11 0 0 47-11 0z m-283 100l88 0 0 19-88 0z m97 0l25 0 0 39-25 0z m-146 46l40 0 0 40-40 0z m-29 0l25 0 0 40-25 0z m29-46l40 0 0 39-40 0z m-29 0l25 0 0 39-25 0z m332-86l60 0 0 20-60 0z"/>
    </symbol>
  
    <symbol id="continuousphp-icon-bitbucket" viewBox="0 0 512 512">
      <path d="m256 0c-122 0-222 33-222 74 0 11 27 164 38 225 5 28 75 68 184 68l0-1 0 1c109 0 180-40 185-68 10-60 37-214 37-225 0-41-100-74-222-74z m0 317c-39 0-70-31-70-70 0-39 31-70 70-70 39 0 70 31 70 70 0 39-31 70-70 70z m0-220c-78 0-142-14-142-31 0-16 64-30 142-30 78 0 142 14 142 31 0 16-64 30-142 30z m159 263c-3 0-6 3-6 3 0 0-54 43-153 43-98 0-153-43-153-43 0 0-3-3-6-3-4 0-8 3-8 9 0 1 0 1 0 2 8 45 14 77 15 82 8 33 73 59 151 59 79 0 144-25 152-59 1-5 7-37 15-82 0-1 0-1 0-2 1-6-3-9-7-9z m-124-113c0 19-15 35-35 35-19 0-35-16-35-35 0-19 16-35 35-35 20 0 35 16 35 35z"/>
    </symbol>
  
    <symbol id="continuousphp-icon-x" viewBox="0 0 512 512">
      <path d="m434 352l-96-96l96-96c4-4 4-10 0-14l-68-68c-4-4-10-4-14 0l-96 96l-96-96c-4-4-11-4-14 0l-68 68c-2 1-3 4-3 7c0 2 1 5 3 7l96 96l-96 96c-2 2-3 5-3 7c0 3 1 6 3 7l68 68c1 2 4 3 7 3c2 0 5-1 7-3l96-96l96 96c2 2 5 3 7 3c3 0 5-1 7-3l68-68c4-4 4-10 0-14z"/>
    </symbol>
  
    <symbol id="continuousphp-icon-twitter-square" viewBox="0 0 512 512">
      <path d="m402 174c-10 5-22 8-34 10c13-8 22-19 26-33c-12 7-25 12-38 14c-12-12-26-19-44-19c-16 0-30 6-42 18c-12 12-18 26-18 42c0 6 1 10 2 14c-25-1-48-8-69-19c-22-11-40-25-55-44c-6 10-9 20-9 30c0 22 9 39 26 50c-9 0-18-2-28-7l0 1c0 14 5 27 14 38c10 11 21 18 35 20c-5 2-10 3-14 3c-3 0-6-1-11-1c4 12 11 21 21 29c10 8 22 12 35 12c-23 17-47 26-75 26c-5 0-10 0-14-1c28 18 59 27 92 27c21 0 41-3 60-10c18-7 34-16 48-27c13-12 25-25 34-39c10-15 17-31 22-47c4-16 7-32 7-48c0-3-1-6-1-8c12-8 22-19 30-31z m73-55l0 274c0 23-8 42-24 58c-16 16-35 24-58 24l-274 0c-23 0-42-8-58-24c-16-16-24-35-24-58l0-274c0-23 8-42 24-58c16-16 35-24 58-24l274 0c23 0 42 8 58 24c16 16 24 35 24 58z"/>
    </symbol>
  
    <symbol id="continuousphp-icon-linkedin-square" viewBox="0 0 512 512">
      <path d="m104 404l66 0l0-198l-66 0z m71-259c-1-10-4-19-11-25c-6-6-15-10-26-10c-11 0-20 4-27 10c-7 6-11 15-11 25c0 9 4 17 10 24c7 7 16 10 27 10l0 0c11 0 20-3 27-10c7-7 11-15 11-24z m167 259l66 0l0-114c0-29-7-51-21-66c-14-15-32-23-55-23c-26 0-46 11-60 34l1 0l0-29l-66 0c0 12 0 78 0 198l66 0l0-111c0-7 0-12 2-16c2-7 7-12 12-17c6-5 13-7 22-7c22 0 33 15 33 45z m133-285l0 274c0 23-8 42-24 58c-16 16-35 24-58 24l-274 0c-23 0-42-8-58-24c-16-16-24-35-24-58l0-274c0-23 8-42 24-58c16-16 35-24 58-24l274 0c23 0 42 8 58 24c16 16 24 35 24 58z"/>
    </symbol>
  
    <symbol id="continuousphp-icon-google-plus" viewBox="0 0 512 512">
      <path d="m230 455c0 7-1 14-3 20l-108 0c-18 0-35-5-49-16c-15-10-25-25-30-42c5-8 11-16 20-22c9-6 18-11 29-14c10-3 20-6 30-7c10-1 20-2 31-2c6 0 10 0 14 1c1 0 4 2 8 6c5 3 8 5 10 6c1 1 4 3 9 7c4 3 7 5 9 7c2 2 4 4 8 7c3 4 6 6 7 9c2 2 4 5 6 8c3 4 4 7 5 10c1 3 2 7 3 11c1 3 1 7 1 11z m-83-100c-45 1-82 9-110 24l0-124c19 23 45 34 78 34c6 0 12 0 20-1c-4 11-6 20-6 24c0 13 6 27 18 43z m49-146c0 19-4 34-12 46c-9 11-22 17-41 17c-9 0-19-2-27-7c-9-5-16-12-23-20c-6-8-11-17-16-26c-4-10-8-20-10-30c-2-10-3-19-3-28c0-19 5-34 15-48c10-13 23-19 41-19c13 0 24 4 34 11c10 8 18 18 24 30c6 12 10 25 13 37c3 13 5 25 5 37z m279-26l0 210c0 23-8 42-24 58c-16 16-35 24-58 24l-134 0c8-13 12-28 12-44c0-13-3-25-7-35c-4-11-9-20-16-27c-6-7-13-14-20-20c-7-7-14-13-21-17c-6-5-11-10-16-16c-4-5-6-11-6-17c0-7 2-13 7-19c4-6 9-12 16-18c6-5 12-12 18-18c7-7 12-16 16-27c5-11 7-23 7-37c0-14-3-28-8-42c-5-14-12-25-21-34c-1-1-3-2-4-3c-2-1-3-2-4-2c-1 0-2-1-3-3c-1-1-2-3-3-5l39 0l38-18l-124 0c-27 0-50 4-70 11c-21 7-38 20-52 38c0-24 7-44 23-61c15-16 35-24 59-24l274 0c23 0 42 8 58 24c16 16 24 35 24 58l0 27l-73 0l0-73l-36 0l0 73l-73 0l0 37l73 0l0 73l36 0l0-73z"/>
    </symbol>
  
    <symbol id="continuousphp-icon-facebook-square" viewBox="0 0 512 512">
      <path d="m410 262l7-62l-57 0l0-31c0-10 1-16 4-20c3-4 10-6 21-6l31 0l0-62l-50 0c-29 0-49 7-62 20c-13 14-19 34-19 61l0 38l-37 0l0 62l37 0l0 182l75 0l0-182z m65-143l0 274c0 23-8 42-24 58c-16 16-35 24-58 24l-274 0c-23 0-42-8-58-24c-16-16-24-35-24-58l0-274c0-23 8-42 24-58c16-16 35-24 58-24l274 0c23 0 42 8 58 24c16 16 24 35 24 58z"/>
    </symbol>
  
    <symbol id="continuousphp-icon-git-pull-request" viewBox="0 0 512 512">
      <path d="m416 361c0 0 0-153 0-201 0-48-48-96-96-96-32 0-32 0-32 0l0-64-96 96 96 96 0-64c0 0 16 0 32 0 16 0 32 16 32 32 0 16 0 201 0 201-19 11-32 32-32 55 0 36 29 64 64 64 36 0 64-28 64-64 0-23-13-44-32-55z m-32 87c-17 0-32-14-32-32 0-17 15-32 32-32 18 0 32 15 32 32 0 18-14 32-32 32z m-256-416c-35 0-64 29-64 64 0 24 13 44 32 55l0 210c-19 11-32 31-32 55 0 35 29 64 64 64 36 0 64-29 64-64 0-24-13-44-32-55l0-210c19-11 32-31 32-55 0-35-28-64-64-64z m0 416c-17 0-32-14-32-32 0-17 15-32 32-32 18 0 32 15 32 32 0 18-14 32-32 32z m0-320c-17 0-32-14-32-32 0-17 15-32 32-32 18 0 32 15 32 32 0 18-14 32-32 32z"/>
    </symbol>
  
    <symbol id="continuousphp-icon-public" viewBox="0 0 512 512">
      <path d="m224 128l-32 0 0 32 32 0z m0-64l-32 0 0 32 32 0z m192-64c-16 0-304 0-320 0-16 0-32 16-32 32 0 16 0 368 0 384 0 16 16 32 32 32 16 0 64 0 64 0l0 64 48-48 48 48 0-64c0 0 144 0 160 0 16 0 32-16 32-32 0-16 0-368 0-384 0-16-16-32-32-32z m0 400c0 8-7 16-16 16-8 0-144 0-144 0l0-32-96 0 0 32c0 0-39 0-48 0-8 0-16-8-16-16 0-7 0-48 0-48l320 0c0 0 0 40 0 48z m0-80l-256 0 0-288 257 0z m-192-64l-32 0 0 32 32 0z m0-64l-32 0 0 32 32 0z"/>
    </symbol>
  
    <symbol id="continuousphp-icon-private" viewBox="0 0 512 512">
      <path d="m416 224c-16 0-32 0-32 0 0 0 0-32 0-96 0-64-64-128-128-128-64 0-128 64-128 128 0 64 0 96 0 96 0 0-16 0-32 0-16 0-32 16-32 32 0 16 0 208 0 224 0 16 16 32 32 32 16 0 304 0 320 0 16 0 32-16 32-32 0-16 0-208 0-224 0-16-16-32-32-32z m-96 64l-192 0 0 32 192 0 0 32-192 0 0 32 192 0 0 32-192 0 0 32 192 0 0 32-224 0 0-224 224 0z m0-64l-128 0c0 0 0-64 0-96 0-32 32-64 64-64 32 0 64 32 64 64 0 32 0 96 0 96z"/>
    </symbol>
  
    <symbol id="continuousphp-icon-parentheses" viewBox="0 0 512 512">
      <path d="m140 441c10 0 19 8 20 18l0 2c0 10-10 19-20 19l-8 0c-46 0-79-20-79-77c0-15 1-31 3-46c2-15 2-31 2-45c0-14-1-34-36-34c-12 0-22-10-22-22c0-12 10-22 22-22c35 0 36-20 36-34c0-14-1-30-3-45c-2-15-3-31-3-46c0-57 34-77 80-77l8 0c10 0 20 9 20 19l0 2c-1 10-10 18-20 18l-1 0c-27 2-41 7-43 41c-1 13 0 26 1 40c1 15 3 29 4 43c2 32-3 49-24 61c21 12 26 29 24 61c-1 14-3 28-4 43c-1 14-2 26-1 40c2 34 16 39 43 41z m232 0l1 0c27-2 41-7 43-41c1-14 0-26-1-40c-1-15-3-29-4-43c-2-32 3-49 24-61c-21-12-26-29-24-61c1-14 3-28 4-43c1-14 2-27 1-40c-2-34-16-39-43-41l-1 0c-10 0-19-8-20-18l0-2c0-10 10-19 20-19l7 0c46 0 80 20 80 77c0 15-1 31-3 46c-2 15-2 31-2 45c0 14 1 34 36 34c12 0 22 10 22 22c0 12-10 22-22 22c-35 0-36 20-36 34c0 14 1 30 2 45c2 15 3 31 3 46c0 57-34 77-80 77l-7 0c-10 0-20-9-20-19l0-2c1-10 10-18 20-18z"/>
    </symbol>
  
    <symbol id="continuousphp-icon-database" viewBox="0 0 512 512">
      <path d="m256 480c-106 0-192-29-192-64 0-19 0-40 0-64 0-6 3-11 7-16 21 28 96 48 185 48 89 0 164-20 185-48 4 5 7 10 7 16 0 19 0 38 0 64 0 35-86 64-192 64z m0-128c-106 0-192-29-192-64 0-19 0-40 0-64 0-3 1-7 3-10 1-2 2-4 4-6 21 28 96 48 185 48 89 0 164-20 185-48 2 2 3 4 4 6 2 3 3 7 3 10 0 19 0 38 0 64 0 35-86 64-192 64z m0-128c-106 0-192-29-192-64 0-10 0-21 0-32 0-10 0-21 0-32 0-35 86-64 192-64 106 0 192 29 192 64 0 10 0 21 0 32 0 10 0 20 0 32 0 35-86 64-192 64z m0-160c-71 0-128 14-128 32 0 18 57 32 128 32 71 0 128-14 128-32 0-18-57-32-128-32z"/>
    </symbol>
  
    <symbol id="continuousphp-icon-php" viewBox="0 0 512 512">
      <path d="m103 216c16 0 26 3 31 9 6 5 7 16 4 30-3 15-8 25-16 32-9 6-21 9-38 9l-26 0 16-80z m-103 162l42 0 10-51 36 0c16 0 29-2 39-5 11-4 20-9 28-17 7-7 13-14 17-22 5-7 8-16 10-25 4-23 1-41-10-54-12-13-29-19-54-19l-80 0z m213-244l41 0-10 51 38 0c23 0 39 4 48 12 9 9 12 22 8 40l-17 90-43 0 17-86c2-9 1-16-2-20-4-3-11-5-21-5l-34 0-21 111-42 0z m218 82c16 0 27 3 32 9 5 5 6 16 4 30-3 15-9 25-17 32-8 6-21 9-38 9l-26 0 16-80z m-103 162l42 0 10-51 36 0c16 0 29-2 40-5 10-4 19-9 28-17 7-7 12-14 17-22 4-7 7-16 9-25 4-23 1-41-10-54-11-13-29-19-53-19l-81 0z"/>
    </symbol>
  
    <symbol id="continuousphp-icon-ico-box" viewBox="0 0 512 512">
      <path d="m501 207l-226-81c-1 0-2-1-3-1l-1 0c-2-1-5-1-8 0l-203 74c-2 1-4 2-5 4l-46 54c-2 2-3 6-2 10 1 4 3 7 7 8l35 16 0 122c0 5 2 10 7 12l196 75c1 1 3 1 4 1 2 0 3 0 5-1l197-76c5-2 8-7 8-12l0-192 27 10c1 1 2 1 4 1 5 0 9-3 11-8 2-7-1-14-7-16z m-460 50l26-31 164 64-28 37z m202 214l-170-66 0-109 129 56c2 1 4 1 5 1 4 0 7-2 10-5l26-35z m8-200c0 0-1 0-1 1l-153-60 170-63 159 60z"/>
    </symbol>
  
    <symbol id="continuousphp-icon-special" viewBox="0 0 512 512">
      <path d="m323 241l-48-4-19-45-19 45-48 4 36 32-11 47 42-25 42 25-11-47z m-61 45l-6-4-5 4-20 12 5-23 1-6-5-4-17-16 23-2 6 0 3-6 9-22 9 22 3 6 6 0 23 2-17 16-5 4 1 6 6 23z m67-84l171 0 0 22-171 0z m0 43l118 0 0 21-118 0z m0 43l64 0 0 21-64 0z m-321-86l171 0 0 22-171 0z m53 43l118 0 0 21-118 0z m54 43l64 0 0 21-64 0z"/>
    </symbol>
  
    <symbol id="continuousphp-icon-cross" viewBox="0 0 512 512">
      <path d="m507 9l-5-4-246 246-247-246-4 4 246 247-246 247 4 4 247-246 246 246 5-4-247-247z"/>
    </symbol>
  
    <symbol id="continuousphp-icon-ico-box-arrow" viewBox="0 0 512 512">
      <path d="m346 80l-72-71-72 71 38 0 0 115 68 0 0-115z m155 127l-176-63 0 27 101 38-175 61c0 1-1 1-1 1l-153-59 126-47 0-26-163 60c-2 1-3 2-5 3l-45 54c-3 3-4 7-3 10 1 4 3 7 7 9l35 15 0 123c0 5 3 10 8 12l195 75c2 1 3 1 5 1 1 0 2 0 4-1l197-76c5-2 8-7 8-12l0-192 27 10c1 1 3 1 4 1 5 0 10-3 11-8 2-7-1-14-7-16z m-460 50l26-31 164 64-28 37z m202 214l-170-66 0-109 129 56c2 1 4 1 5 1 4 0 7-2 10-5l26-35z"/>
    </symbol>
  
    <symbol id="continuousphp-icon-deployment" viewBox="0 0 512 512">
      <path d="m341 247c0-2 0-4-2-6l-94-94c-2-1-4-2-6-2c-3 0-5 1-6 2l-94 94c-2 2-2 4-2 6c0 3 0 5 2 7c2 1 4 2 6 2l60 0l0 94c0 2 1 4 2 6c2 2 4 2 6 2l52 0c2 0 4 0 6-2c1-2 2-4 2-6l0-94l60 0c2 0 4-1 6-3c1-1 2-3 2-6z m171 77c0 29-10 53-30 73c-20 20-44 30-72 30l-291 0c-32 0-61-12-84-35c-23-24-35-52-35-85c0-23 6-44 19-64c12-19 29-34 50-44c-1-5-1-9-1-11c0-38 14-70 40-97c27-26 59-40 97-40c28 0 53 8 76 23c23 16 40 36 50 62c13-11 28-17 44-17c19 0 35 7 49 20c13 14 20 30 20 49c0 13-4 26-11 37c23 5 42 17 57 36c15 18 22 39 22 63z"/>
    </symbol>
  
    <symbol id="continuousphp-icon-ruby" viewBox="0 0 512 512">
      <path d="m384 64l-256 0-128 128 256 256 256-256z m-320 128l96-96 192 0 96 96-192 192z m288-64l-96 0 0 224 160-160z"/>
    </symbol>
  
    <symbol id="continuousphp-icon-web" viewBox="0 0 512 512">
      <path d="m256 64c-106 0-192 86-192 192c0 106 86 192 192 192c106 0 192-86 192-192c0-106-86-192-192-192z m-139 217l30 0c5 38 21 73 45 101c-39-20-67-57-75-101z m30-50l-30 0c8-44 36-81 75-101c-24 28-40 63-45 101z m84 117c-17-18-28-41-33-67l33 0z m0-117l-33 0c5-26 16-49 33-67z m164 0l-30 0c-5-38-21-73-45-101c39 20 67 57 75 101z m-114 117l0-67l33 0c-5 26-16 49-33 67z m0-117l0-67c17 18 28 41 33 67z m39 151c24-28 40-62 45-101l30 0c-8 44-36 81-75 101z"/>
    </symbol>
  
    <symbol id="continuousphp-icon-testing" viewBox="0 0 512 512">
	<path fill="none" d="M249 224.4c-14.8 0-26.7 12-26.7 26.6s12 26.6 26.6 26.6c14.3 0 26.2-12 26.2-26.6s-12-26.6-26.5-26.6z"/>
	<path d="M402 220.7L309.6 344H372v31.3c0 17-14 30.7-31 30.7H156.3c-17 0-31.2-13.7-31.2-30.7V344H64v31.3c0 51 41 92.7 92.2 92.7h185c51 0 92.8-41.7 92.8-92.7V344h61.3L402 220.7zM187.8 160H125v-31.3c0-17 14.2-30.7 31.2-30.7h185c17 0 30.8 13.7 30.8 30.7V160h62v-31.3c0-51-42-92.7-93-92.7H156.3c-51 0-92.2 41.7-92.2 92.7V160H2l93.2 123.3L187.8 160z"/>
	<path d="M320 259.7V242l-21.3-8.8c-.5-1.7-1.2-3.3-2-5l8.6-21-12.6-12.6-21 8.6c-1.7-.7-3.3-1.5-5-2l-9-21.2H240l-8.7 21-5.2 2.2-21-8.5-12.2 12.6L201 228c-.7 1.8-1.5 3.6-2 5.4l-21 9V260l21 8.7 2 5.2-8.3 21 12.6 12.2 21-8.6c1.5.8 3.3 1.6 5 2.2l9 21H258l8.8-21 5-2.3 21 8.5 12.6-12.6-8.7-21c.8-1.7 1.5-3.3 2-5l21.3-9zm-71 18c-14.8 0-26.7-12-26.7-26.7s12-26.6 26.6-26.6c14.3 0 26.2 12 26.2 26.6s-12 26.6-26.5 26.6z"/>
    </symbol>

    <symbol id="continuousphp-icon-task-runner" viewBox="0 0 32 32">
	<polygon points="0,20 16,24 32,20 32,24 16,28 0,24"/>
	<polygon points="0,12 16,16 32,12 32,16 16,20 0,16"/>
	<polygon points="0,4 16,0 32,4 32,8 16,12 0,8"/>
    </symbol>

    <symbol id="continuousphp-icon-docker" viewBox="0 0 466 423.891">
	 <path fill-rule="evenodd" clip-rule="evenodd" d="M242 168.5h47.3v48.2H313c11 0 22.4-2 33-5.5 5-1.8 10.7-4.2 15.8-7.2-6.7-8.7-10-19.7-11-30.5-1.4-14.7 1.6-33.8 11.5-45.4l5-5 6 5c14.7 12 27.2 29 29.4 48 18-5 39-4 54.7 5l6.5 4-4 7c-14 26-41 34-69 33-40 101-129 149-237 149-56 0-107-21-136-70v-1l-4-9C4 271 1 247 3 224l.7-7H44v-48.4h47.3v-47.2h94.3v-47H242v94.2z"/>
 	 <path d="M86.2 179.7h3.2v34h-3.2v-34zm-6.2 0h3.4v34H80v-34zm-6.2 0h3.4v34h-3.4v-34zm-6.2 0H71v34h-3.4v-34zm-6.2 0h3.4v34h-3.4v-34zm-6 0h3.2v34h-3.2v-34zm-3.4-3.4h40.8v41H52v-41zm81.4-43.7h3.2v34h-3.2v-34zm-6.2 0h3.3v34h-3.3v-34zm-6.2 0h3.3v34H121v-34zm-6.2 0h3.3v34h-3v-34zm-6.2 0h3.3v34h-4v-34zm-6 0h3.2v34h-3.3v-34zm-3.5-3.4h41v41H99v-41zm35 50.5h3v34h-3v-34zm-6 0h4v34h-4v-34zm-6 0h4v34h-4v-34zm-6 0h3v34h-3v-34zm-6 0h4v34h-4v-34zm-6 0h3v34h-4v-34zm-3-3.4h41v41H99v-41zm82 3.4h3v34h-3v-34zm-6.4 0h3.4v34h-4v-34zm-6.2 0h3.8v34h-4v-34zm-6 0h3.6v34h-4v-34zm-6 0h3.5v34h-4v-34zm-6 0h3.3v34h-4v-34zm-3.3-3.4h40v41h-41v-41zm34-43.7h3v34h-3v-34zm-6 0h3v34h-3v-34zm-6.6 0h3.6v34h-4v-34zm-6 0h3.4v34h-4v-34zm-6.2 0h3.8v34h-4v-34zm-6 0h3v34h-4v-34zm-3-3.4h40v41h-41v-41zm81.3 50.5h3v34h-4v-34zm-6 0h3v34h-4v-34zm-6.5 0h3v34h-3v-34zm-6 0h3.5v34h-4v-34zm-6 0h3v34h-4v-34zm-6 0h3v34h-3v-34zm-3.5-3.4h41v41h-41v-41zm34-43.7h3.4v34h-4v-34zm-6 0h3.3v34h-4v-34zm-6 0h3.3v34h-4v-34zm-6 0h3.3v34h-4v-34zm-6 0h3v34h-4v-34zm-6 0h3v34h-3v-34zm-3.7-3.4h41v41h-41v-41zm34-43.7h3.5v34h-4v-34zm-6 0h3.4v34h-4v-34zm-6 0h3v34h-4v-34zm-6.3 0h4v34h-5v-34zm-6 0h3.7v34h-4v-34zm-6 0h3v34h-3v-34zm-4-3.5h41v41h-41V82zm81.6 97.7h3v34h-3v-34zm-6 0h3.4v34h-4v-34zm-6.2 0h3.7v34h-4v-34zm-6 0h3.5v34h-4v-34zm-6 0h3.4v34h-4v-34zm-6 0h3.2v34h-4v-34zm-3.4-3.4h40v41h-42v-41zm-104 107c6.3 0 11.3 5 11.3 11.4 0 6.2-5 11.3-11.5 11.3-6 0-11-5-11-11.3 0-6.2 5-11.3 11.2-11.3" fill-rule="evenodd" clip-rule="evenodd" fill="#FFF"/>
	 <path fill-rule="evenodd" clip-rule="evenodd" d="M137.4 286.6c1 0 2 .2 3 .6-1 .6-1.7 1.6-1.7 2.8 0 2 1.5 3.3 3.3 3.3 1.2 0 2.3-.7 3-1.7.3 1 .5 2 .5 3 0 4.6-3.6 8.2-8 8.2-4.5 0-8-3.6-8-8 0-4.5 3.5-8.2 8-8.2"/>
	 <path fill="#FFF" d="M167.4 364.7c-28-13.3-43.2-31.3-51.8-51-10.3 3-22.8 5-37.3 5.7-5.4.3-11.2.5-17.2.5s-14-1-21-1c26 25 57 45 116 45l13-1z"/>
    </symbol>

    <symbol id="continuousphp-icon-nodejs" viewBox="0 0 256 282">
	<path d="M116.5 3.58c6.97-3.98 16.03-4 23 0 34.98 19.77 70 39.52 104.98 59.3 6.58 3.7 10.98 11.03 10.92 18.62v118.96c.04 7.9-4.8 15.4-11.74 19.02l-104.6 59.02c-7.12 4.07-16.37 3.75-23.25-.64-10.4-6.07-20.9-12.1-31.3-18.15-2.1-1.2-4.5-2.2-6-4.3 1.4-1.8 3.7-2 5.7-2.8 4.4-1.4 8.4-3.6 12.4-5.8 1.1-.7 2.3-.4 3.3.2 9 5.2 17.8 10.4 26.8 15.5 1.9 1.1 3.9-.4 5.5-1.3 34.2-19.3 68.5-38.6 102.7-57.9 1.3-.6 2-1.9 1.9-3.3.08-39.2 0-78.5 0-117.7.2-1.5-.7-3-2.12-3.6l-104.5-59c-1.25-.8-2.85-.8-4.1 0C91.2 39.3 56.48 58.9 21.7 78.5c-1.4.65-2.36 2.08-2.2 3.66V199.9c-.1 1.37.64 2.7 1.9 3.3 9.27 5.25 18.56 10.47 27.84 15.7 5.23 2.8 11.64 4.5 17.4 2.34 5.1-1.8 8.65-7 8.55-12.4 0-39-.1-78 0-117.02-.2-1.73 1.5-3.16 3.2-3 4.4-.03 8.9-.06 13.3 0 1.8-.03 3.1 1.84 2.9 3.6 0 39.25 0 78.5-.1 117.8.1 10.44-4.2 21.84-13.9 26.94-12 6.2-26.7 4.88-38.5-1.04-10.2-5.12-20-11.12-30-16.57C5.3 215.9.5 208.35.6 200.45V81.5c-.07-7.74 4.5-15.2 11.3-18.85L116.5 3.58z"/>
	 <path d="M146.93 86c15.2-1 31.5-.6 45.18 6.9 10.6 5.74 16.5 17.8 16.7 29.57-.3 1.6-1.9 2.46-3.4 2.35-4.4 0-8.8.06-13.2-.03-1.8 0-2.9-1.7-3.2-3.3-1.2-5.7-4.3-11.3-9.6-14-8.1-4.1-17.6-3.9-26.4-3.8-6.4.3-13.4.9-18.9 4.7-4.2 2.8-5.5 8.7-4 13.4 1.5 3.3 5.4 4.4 8.5 5.4 18.4 4.8 37.8 4.3 55.8 10.6 7.47 2.5 14.75 7.5 17.3 15.3 3.36 10.4 1.9 22.9-5.53 31.3-6 6.9-14.8 10.6-23.54 12.7-11.66 2.6-23.75 2.6-35.57 1.5-11.1-1.3-22.7-4.2-31.3-11.8-7.3-6.4-10.9-16.3-10.6-25.9.1-1.6 1.7-2.8 3.3-2.6 4.46-.1 8.9-.1 13.34 0 1.76-.2 3.1 1.4 3.16 3 .8 5.36 2.83 11 7.5 14.2 9 5.8 20.35 5.4 30.7 5.57 8.56-.35 18.2-.5 25.2-6.13 3.66-3.2 4.75-8.63 3.75-13.3-1.1-3.9-5.2-5.73-8.7-6.9-18.1-5.74-37.72-3.66-55.64-10.1-7.3-2.6-14.3-7.46-17.1-14.9-3.9-10.6-2.1-23.7 6.1-31.8 7.9-8 19.43-11.1 30.43-12.2z"/>
    </symbol>

    <symbol id="continuousphp-icon-emails" viewBox="0 0 512 512">
	 <path d="M333.02 155.02l-13.86 117.45c-1.03 8.27-1.54 16.18-1.54 23.75 0 11.27 4.04 16.87 12.13 16.87 12.9 0 25.3-8.88 37.17-26.6s17.72-39.25 17.72-64.45c0-36.4-13.08-66.1-39.4-88.8-26.33-22.8-58.17-34.16-95.68-34.16-41.13 0-75.72 14.1-103.7 42.32-28.04 28.23-41.98 63-41.98 104.37 0 38.63 13.17 72.2 39.4 100.66 26.34 28.48 63.25 42.77 110.84 42.77 37 0 74.68-9.9 113.14-29.78l14.9 34.33c-41.14 20.98-83.9 31.48-128.04 31.48-58.68 0-105.23-17.72-139.82-53.08-34.5-35.36-51.8-77.6-51.8-126.66 0-51.28 18.16-94.13 54.47-128.54 36.3-34.5 80.2-51.72 131.55-51.72 48.45 0 89.14 14.9 122 44.5 32.97 29.67 49.5 67.1 49.5 112.28 0 32.78-9.3 62.03-27.8 87.67-18.5 25.56-40.96 38.38-67.55 38.38-20.65 0-34.93-8.68-42.85-26.15-14.46 18.15-32.1 27.2-52.92 27.2-21.33 0-39.66-8.87-54.8-26.77-15.24-17.8-22.8-41.22-22.8-70.3 0-29.94 8.5-54.2 25.64-72.96 17.2-18.76 37.6-28.14 61.26-28.14 22.88 0 39.32 7.23 49.38 21.68l2.07-17.64h43.37zM232.18 308.1c13.42 0 25.55-6.54 36.4-19.62 10.84-13 16.26-29.94 16.26-50.77 0-11.77-4.13-22.26-12.48-31.64-8.26-9.3-18.5-13.94-30.63-13.94-13.08 0-23.92 5.78-32.53 17.3-8.52 11.45-12.82 26.42-12.82 44.75 0 15.57 3.28 28.48 10 38.63 6.6 10.15 15.2 15.32 25.8 15.32z"/>
    </symbol>

    <symbol id="continuousphp-icon-notification" viewBox="0 0 32 32">
	<path d="M32 32h-4.57C27.43 16.87 15.13 4.57 0 4.57V0c17.64 0 32 14.36 32 32z"/>
	<path d="M22.86 32H18.3c-.03-10.08-8.24-18.3-18.32-18.3V9.16C12.6 9.14 22.86 19.4 22.86 32z"/>
	<path d="M13.7 32H9.17c0-5.04-4.1-9.14-9.14-9.14V18.3C7.56 18.27 13.7 24.43 13.7 32h.02zm-9.13 0c0-2.52-2.04-4.57-4.57-4.57V32h4.57z"/>
    </symbol>
</svg>
