<?xml version="1.0" encoding="UTF-8" standalone="no"?>
<svg
   xmlns:dc="http://purl.org/dc/elements/1.1/"
   xmlns:cc="http://creativecommons.org/ns#"
   xmlns:rdf="http://www.w3.org/1999/02/22-rdf-syntax-ns#"
   xmlns:svg="http://www.w3.org/2000/svg"
   xmlns="http://www.w3.org/2000/svg"
   viewBox="0 0 626.06665 145.48"
   height="145.48"
   width="626.06665"
   xml:space="preserve"
   id="svg2"
   version="1.1"><metadata
     id="metadata8"><rdf:RDF><cc:Work
         rdf:about=""><dc:format>image/svg+xml</dc:format><dc:type
           rdf:resource="http://purl.org/dc/dcmitype/StillImage" /></cc:Work></rdf:RDF></metadata><defs
     id="defs6" /><g
     transform="matrix(1.3333333,0,0,-1.3333333,0,145.48)"
     id="g10"><g
       transform="scale(0.1)"
       id="g12"><path
         id="path14"
         style="fill:#514e4f;fill-opacity:1;fill-rule:nonzero;stroke:none"
         d="M 1172.46,831.539 V 727.918 h -17.24 v 103.621 h -35.14 v 14.281 h 87.97 v -14.281 h -35.59" /><path
         id="path16"
         style="fill:#514e4f;fill-opacity:1;fill-rule:nonzero;stroke:none"
         d="m 1315.31,727.918 v 53.508 h -63.49 v -53.508 h -17.23 V 845.82 h 17.23 v -49.652 h 63.49 v 49.652 h 17.24 V 727.918 h -17.24" /><path
         id="path18"
         style="fill:#514e4f;fill-opacity:1;fill-rule:nonzero;stroke:none"
         d="M 1378.13,727.918 V 845.82 h 64.17 v -13.371 h -46.93 v -37.191 h 44.89 v -13.149 h -44.89 V 741.75 h 46.93 v -13.832 h -64.17" /><path
         id="path20"
         style="fill:#514e4f;fill-opacity:1;fill-rule:nonzero;stroke:none"
         d="m 1576.78,726.328 c -35.6,0 -60.55,20.637 -60.55,58.504 0,35.145 24.27,62.582 64.63,62.582 11.79,0 23.13,-1.594 34.69,-5.215 l -2.5,-15.422 c -10.88,4.082 -21.76,6.575 -32.87,6.575 -24.26,0 -45.8,-15.418 -45.8,-46.711 0,-29.246 18.14,-45.575 44.89,-45.575 7.71,0 15.42,1.36 21.54,3.172 v 43.766 h 17.24 v -54.645 c -12.7,-4.535 -26.08,-7.031 -41.27,-7.031" /><path
         id="path22"
         style="fill:#514e4f;fill-opacity:1;fill-rule:nonzero;stroke:none"
         d="m 1704,726.105 c -38.1,0 -55.11,25.165 -55.11,59.633 0,39.223 26.99,61.899 58.74,61.899 34.68,0 55.55,-21.313 55.55,-59.864 0,-39.453 -26.08,-61.668 -59.18,-61.668 z m 2.04,106.797 c -20.63,0 -38.77,-15.875 -38.77,-45.351 0,-25.168 9.74,-46.485 37.86,-46.485 22.45,0 39.68,15.418 39.68,44.895 0,30.613 -14.74,46.941 -38.77,46.941" /><path
         id="path24"
         style="fill:#514e4f;fill-opacity:1;fill-rule:nonzero;stroke:none"
         d="m 1840.74,727.918 h -19.28 l -46.48,117.902 h 19.28 l 26.75,-70.062 c 3.86,-9.977 7.26,-19.953 9.98,-29.703 h 0.22 c 3.18,9.75 6.58,19.504 10.21,28.8 l 28.57,70.965 h 17.91 l -47.16,-117.902" /><path
         id="path26"
         style="fill:#514e4f;fill-opacity:1;fill-rule:nonzero;stroke:none"
         d="M 1911.04,727.918 V 845.82 h 64.17 v -13.371 h -46.93 v -37.191 h 44.89 v -13.149 h -44.89 V 741.75 h 46.93 v -13.832 h -64.17" /><path
         id="path28"
         style="fill:#514e4f;fill-opacity:1;fill-rule:nonzero;stroke:none"
         d="m 2072.95,727.918 -41.5,52.375 h -0.68 v -52.375 h -17.23 V 845.82 c 7.03,0.231 18.36,0.453 32.2,0.453 26.98,0 41.94,-10.652 41.94,-30.378 0,-20.864 -16.09,-32.883 -37.86,-34.016 3.17,-3.172 6.8,-7.707 10.65,-12.469 l 34.24,-41.492 z m -29.48,105.207 c -5.67,0 -9.29,-0.223 -12.7,-0.676 v -39.683 c 3.63,-0.227 8.62,-0.457 13.38,-0.457 15.65,0 25.62,8.39 25.62,21.543 0,12.925 -10.2,19.273 -26.3,19.273" /><path
         id="path30"
         style="fill:#514e4f;fill-opacity:1;fill-rule:nonzero;stroke:none"
         d="m 2204.69,727.918 -48.29,73.687 c -5.21,7.711 -9.98,16.329 -13.61,23.813 h -0.22 c 0.45,-7.938 0.91,-17.008 0.91,-30.836 l 0.22,-66.664 h -16.77 V 845.82 h 22.44 l 47.62,-72.781 c 4.99,-7.48 9.98,-15.875 14.28,-24.035 h 0.23 c -0.45,8.16 -0.91,21.992 -0.91,41.496 l -0.22,55.32 h 17 V 727.918 h -22.68" /><path
         id="path32"
         style="fill:#514e4f;fill-opacity:1;fill-rule:nonzero;stroke:none"
         d="m 2394.5,727.918 -9.75,68.93 c -1.82,13.601 -2.72,22.898 -3.41,29.246 h -0.22 c -1.36,-5.215 -3.17,-12.469 -5.9,-20.176 l -26.98,-78 h -18.82 l -24.94,73.012 c -2.95,8.386 -6.35,18.136 -7.48,25.164 h -0.23 c -0.68,-9.067 -1.59,-18.364 -3.17,-29.703 l -8.85,-68.473 h -17.23 l 17.69,117.902 h 21.31 l 26.07,-75.957 c 2.95,-8.164 5.44,-15.871 6.59,-22.445 h 0.22 c 1.81,7.934 3.62,13.375 6.35,21.539 l 27.2,76.863 h 22.46 l 17.22,-117.902 h -18.13" /><path
         id="path34"
         style="fill:#514e4f;fill-opacity:1;fill-rule:nonzero;stroke:none"
         d="M 2452.79,727.918 V 845.82 h 64.17 v -13.371 h -46.94 v -37.191 h 44.9 v -13.149 h -44.9 V 741.75 h 46.94 v -13.832 h -64.17" /><path
         id="path36"
         style="fill:#514e4f;fill-opacity:1;fill-rule:nonzero;stroke:none"
         d="m 2633.06,727.918 -48.3,73.687 c -5.21,7.711 -9.97,16.329 -13.6,23.813 h -0.23 c 0.45,-7.938 0.91,-17.008 0.91,-30.836 l 0.23,-66.664 h -16.78 V 845.82 h 22.44 l 47.62,-72.781 c 4.99,-7.48 9.98,-15.875 14.28,-24.035 h 0.23 c -0.45,8.16 -0.91,21.992 -0.91,41.496 l -0.22,55.32 h 17.01 V 727.918 h -22.68" /><path
         id="path38"
         style="fill:#514e4f;fill-opacity:1;fill-rule:nonzero;stroke:none"
         d="M 2733.3,831.539 V 727.918 h -17.24 v 103.621 h -35.15 v 14.281 h 87.98 v -14.281 h -35.59" /><path
         id="path40"
         style="fill:#514e4f;fill-opacity:1;fill-rule:nonzero;stroke:none"
         d="m 1181.75,485.156 c -38.09,0 -55.1,25.172 -55.1,59.637 0,39.227 26.99,61.898 58.73,61.898 34.69,0 55.55,-21.316 55.55,-59.859 0,-39.453 -26.07,-61.676 -59.18,-61.676 z m 2.04,106.797 c -20.63,0 -38.77,-15.871 -38.77,-45.348 0,-25.167 9.75,-46.48 37.87,-46.48 22.44,0 39.67,15.418 39.67,44.891 0,30.613 -14.73,46.937 -38.77,46.937" /><path
         id="path42"
         style="fill:#514e4f;fill-opacity:1;fill-rule:nonzero;stroke:none"
         d="m 1291.51,591.5 v -38.32 h 43.99 v -13.379 h -43.99 v -52.832 h -17.23 v 117.91 h 63.71 V 591.5 h -46.48" /><path
         id="path44"
         style="fill:#514e4f;fill-opacity:1;fill-rule:nonzero;stroke:none"
         d="M 1448.21,590.59 V 486.969 h -17.24 V 590.59 h -35.14 v 14.289 h 87.97 V 590.59 h -35.59" /><path
         id="path46"
         style="fill:#514e4f;fill-opacity:1;fill-rule:nonzero;stroke:none"
         d="m 1591.06,486.969 v 53.515 h -63.48 v -53.515 h -17.23 v 117.91 h 17.23 v -49.66 h 63.48 v 49.66 h 17.24 v -117.91 h -17.24" /><path
         id="path48"
         style="fill:#514e4f;fill-opacity:1;fill-rule:nonzero;stroke:none"
         d="m 1653.89,486.969 v 117.91 h 64.16 V 591.5 h -46.93 v -37.188 h 44.9 v -13.148 h -44.9 v -40.363 h 46.93 v -13.832 h -64.16" /><path
         id="path50"
         style="fill:#514e4f;fill-opacity:1;fill-rule:nonzero;stroke:none"
         d="m 1852.53,485.383 c -35.6,0 -60.54,20.633 -60.54,58.5 0,35.148 24.26,62.582 64.62,62.582 11.79,0 23.13,-1.586 34.69,-5.215 l -2.49,-15.418 c -10.88,4.082 -21.77,6.578 -32.88,6.578 -24.26,0 -45.8,-15.422 -45.8,-46.711 0,-29.254 18.14,-45.574 44.89,-45.574 7.71,0 15.43,1.355 21.54,3.172 v 43.758 h 17.24 v -54.641 c -12.7,-4.539 -26.08,-7.031 -41.27,-7.031" /><path
         id="path52"
         style="fill:#514e4f;fill-opacity:1;fill-rule:nonzero;stroke:none"
         d="m 1996.07,486.969 -41.49,52.383 h -0.68 v -52.383 h -17.24 v 117.91 c 7.04,0.223 18.38,0.453 32.2,0.453 26.98,0 41.95,-10.66 41.95,-30.383 0,-20.863 -16.1,-32.879 -37.86,-34.011 3.17,-3.18 6.8,-7.711 10.65,-12.469 l 34.24,-41.5 z M 1966.6,592.18 c -5.67,0 -9.3,-0.227 -12.7,-0.68 v -39.676 c 3.63,-0.23 8.62,-0.457 13.37,-0.457 15.66,0 25.63,8.391 25.63,21.539 0,12.926 -10.2,19.274 -26.3,19.274" /><path
         id="path54"
         style="fill:#514e4f;fill-opacity:1;fill-rule:nonzero;stroke:none"
         d="m 2125.1,486.969 -9.97,26.304 h -55.11 l -10.2,-26.304 h -17.23 l 46.48,117.91 h 19.27 l 45.81,-117.91 z m -30.38,79.816 c -2.72,7.027 -5.22,14.508 -7.03,20.18 h -0.23 c -1.58,-5.895 -4.08,-13.153 -6.8,-20.18 l -15.87,-40.586 h 45.58 l -15.65,40.586" /><path
         id="path56"
         style="fill:#514e4f;fill-opacity:1;fill-rule:nonzero;stroke:none"
         d="m 2249.59,486.969 -48.29,73.695 c -5.21,7.711 -9.98,16.324 -13.6,23.809 h -0.24 c 0.47,-7.938 0.92,-17.008 0.92,-30.84 l 0.23,-66.664 h -16.79 v 117.91 h 22.45 l 47.62,-72.785 c 4.99,-7.485 9.98,-15.871 14.29,-24.035 h 0.22 c -0.46,8.164 -0.91,21.996 -0.91,41.492 l -0.22,55.328 h 17 v -117.91 h -22.68" /><path
         id="path58"
         style="fill:#514e4f;fill-opacity:1;fill-rule:nonzero;stroke:none"
         d="m 2349.83,486.52 c -13.15,0 -22.9,0.449 -31.96,0.449 v 117.91 c 9.74,0 25.16,0.453 37.86,0.453 39.23,0 63.48,-17.23 63.48,-58.047 0,-41.492 -29.47,-60.765 -69.38,-60.765 z m 3.17,105.21 c -5.44,0 -12.23,-0.23 -17.91,-0.683 v -89.793 c 4.09,-0.223 11.57,-0.676 16.78,-0.676 29.02,0 49.21,14.281 49.21,45.574 0,30.157 -16.1,45.578 -48.08,45.578" /><path
         id="path60"
         style="fill:#514e4f;fill-opacity:1;fill-rule:nonzero;stroke:none"
         d="m 2531.93,486.52 c -13.16,0 -22.9,0.449 -31.97,0.449 v 117.91 c 9.74,0 25.16,0.453 37.86,0.453 39.23,0 63.49,-17.23 63.49,-58.047 0,-41.492 -29.48,-60.765 -69.38,-60.765 z m 3.17,105.21 c -5.45,0 -12.24,-0.23 -17.92,-0.683 v -89.793 c 4.09,-0.223 11.57,-0.676 16.79,-0.676 29.02,0 49.2,14.281 49.2,45.574 0,30.157 -16.1,45.578 -48.07,45.578" /><path
         id="path62"
         style="fill:#514e4f;fill-opacity:1;fill-rule:nonzero;stroke:none"
         d="m 2681.59,485.156 c -31.74,0 -48.75,14.969 -48.75,42.176 v 77.547 h 17.23 v -75.055 c 0,-20.859 12.25,-30.379 32.88,-30.379 24.04,0 32.65,13.602 32.65,33.098 v 72.336 h 17 v -73.238 c 0,-24.942 -14.73,-46.485 -51.01,-46.485" /><path
         id="path64"
         style="fill:#514e4f;fill-opacity:1;fill-rule:nonzero;stroke:none"
         d="m 2822.41,485.383 c -37.18,0 -56.92,21.765 -56.92,58.047 0,34.011 18.6,62.812 61.68,62.812 8.85,0 18.82,-1.14 27.21,-3.406 l -1.58,-15.645 c -9.52,2.95 -18.82,4.539 -27.89,4.539 -27.89,0 -41.05,-20.41 -41.05,-46.484 0,-28.801 14.74,-44.668 42.63,-44.668 9.53,0 19.72,2.266 27.67,6.121 l 1.35,-15.195 c -9.52,-3.852 -20.63,-6.121 -33.1,-6.121" /><path
         id="path66"
         style="fill:#514e4f;fill-opacity:1;fill-rule:nonzero;stroke:none"
         d="m 2968.9,486.969 v 53.515 h -63.49 v -53.515 h -17.23 v 117.91 h 17.23 v -49.66 h 63.49 v 49.66 h 17.23 v -117.91 h -17.23" /><path
         id="path68"
         style="fill:#514e4f;fill-opacity:1;fill-rule:nonzero;stroke:none"
         d="m 3066.19,528.469 v -41.5 h -17.24 v 41.269 l -40.81,76.641 h 19.04 l 20.64,-39.453 c 3.63,-7.031 7.03,-14.059 9.98,-21.543 h 0.22 c 3.4,7.941 7.26,15.875 11.12,23.129 l 20.63,37.867 h 17.91 l -41.49,-76.41" /><path
         id="path70"
         style="fill:#514e4f;fill-opacity:1;fill-rule:nonzero;stroke:none"
         d="m 3223.79,485.156 c -38.09,0 -55.1,25.172 -55.1,59.637 0,39.227 26.98,61.898 58.73,61.898 34.69,0 55.55,-21.316 55.55,-59.859 0,-39.453 -26.08,-61.676 -59.18,-61.676 z m 2.03,106.797 c -20.62,0 -38.77,-15.871 -38.77,-45.348 0,-25.167 9.75,-46.48 37.88,-46.48 22.44,0 39.68,15.418 39.68,44.891 0,30.613 -14.74,46.937 -38.79,46.937" /><path
         id="path72"
         style="fill:#514e4f;fill-opacity:1;fill-rule:nonzero;stroke:none"
         d="m 3333.55,591.5 v -38.32 h 43.99 v -13.379 h -43.99 v -52.832 h -17.24 v 117.91 h 63.73 V 591.5 h -46.49" /><path
         id="path74"
         style="fill:#514e4f;fill-opacity:1;fill-rule:nonzero;stroke:none"
         d="m 3462.58,486.969 v 117.91 h 17.23 V 501.48 h 43.77 v -14.511 h -61" /><path
         id="path76"
         style="fill:#514e4f;fill-opacity:1;fill-rule:nonzero;stroke:none"
         d="m 3596.37,485.156 c -31.75,0 -48.75,14.969 -48.75,42.176 v 77.547 h 17.23 v -75.055 c 0,-20.859 12.24,-30.379 32.88,-30.379 24.03,0 32.66,13.602 32.66,33.098 v 72.336 h 17 v -73.238 c 0,-24.942 -14.74,-46.485 -51.02,-46.485" /><path
         id="path78"
         style="fill:#514e4f;fill-opacity:1;fill-rule:nonzero;stroke:none"
         d="m 3762.37,486.969 -33.79,47.394 -34.01,-47.394 h -21.31 l 45.57,58.73 -43.77,59.18 h 21.99 l 32.66,-46.254 33.56,46.254 h 20.18 l -43.53,-58.274 45.57,-59.636 h -23.12" /><path
         id="path80"
         style="fill:#514e4f;fill-opacity:1;fill-rule:nonzero;stroke:none"
         d="m 3814.75,486.969 v 117.91 h 64.17 V 591.5 h -46.93 v -37.188 h 44.89 v -13.148 h -44.89 v -40.363 h 46.93 v -13.832 h -64.17" /><path
         id="path82"
         style="fill:#514e4f;fill-opacity:1;fill-rule:nonzero;stroke:none"
         d="m 4039.02,486.969 -9.76,68.929 c -1.8,13.61 -2.71,22.907 -3.4,29.254 h -0.22 c -1.36,-5.214 -3.18,-12.472 -5.9,-20.179 l -26.98,-78.004 h -18.82 L 3949,559.98 c -2.95,8.395 -6.35,18.141 -7.48,25.172 h -0.23 c -0.68,-9.07 -1.59,-18.367 -3.18,-29.703 l -8.84,-68.48 h -17.23 l 17.68,117.91 h 21.32 l 26.07,-75.961 c 2.95,-8.16 5.44,-15.871 6.58,-22.449 h 0.23 c 1.81,7.937 3.62,13.379 6.35,21.543 l 27.21,76.867 h 22.45 l 17.22,-117.91 h -18.13" /><path
         id="path84"
         style="fill:#514e4f;fill-opacity:1;fill-rule:nonzero;stroke:none"
         d="m 4129.28,486.52 c -7.49,0 -19.5,0.226 -31.97,0.449 v 117.91 c 9.07,0 21.77,0.453 37.41,0.453 28.34,0 39.68,-11.562 39.68,-28.344 0,-12.472 -7.93,-22.445 -21.31,-27.437 v -0.223 c 16.09,-3.176 23.81,-14.058 23.81,-26.984 0,-13.832 -8.17,-35.824 -47.62,-35.824 z m 1.81,105.89 c -5.66,0 -11.56,0 -16.55,-0.23 v -38.094 c 4.54,-0.223 9.07,-0.223 10.66,-0.223 19.49,0 31.29,6.801 31.29,20.86 0,10.199 -5.67,17.687 -25.4,17.687 z m -5.44,-50.57 c -2.27,0 -7.94,0 -11.11,-0.223 v -41.039 c 3.41,-0.683 8.39,-1.133 15.64,-1.133 19.96,0 28.8,9.293 28.8,22.215 0,15.649 -14.29,20.18 -33.33,20.18" /><path
         id="path86"
         style="fill:#514e4f;fill-opacity:1;fill-rule:nonzero;stroke:none"
         d="m 4258.3,485.156 c -38.08,0 -55.09,25.172 -55.09,59.637 0,39.227 26.98,61.898 58.73,61.898 34.68,0 55.54,-21.316 55.54,-59.859 0,-39.453 -26.07,-61.676 -59.18,-61.676 z m 2.05,106.797 c -20.64,0 -38.77,-15.871 -38.77,-45.348 0,-25.167 9.74,-46.48 37.86,-46.48 22.45,0 39.68,15.418 39.68,44.891 0,30.613 -14.74,46.937 -38.77,46.937" /><path
         id="path88"
         style="fill:#514e4f;fill-opacity:1;fill-rule:nonzero;stroke:none"
         d="m 4398.68,485.156 c -31.74,0 -48.75,14.969 -48.75,42.176 v 77.547 h 17.23 v -75.055 c 0,-20.859 12.25,-30.379 32.88,-30.379 24.04,0 32.65,13.602 32.65,33.098 v 72.336 h 17 v -73.238 c 0,-24.942 -14.73,-46.485 -51.01,-46.485" /><path
         id="path90"
         style="fill:#514e4f;fill-opacity:1;fill-rule:nonzero;stroke:none"
         d="m 4553.56,486.969 -41.49,52.383 h -0.69 v -52.383 h -17.22 v 117.91 c 7.02,0.223 18.36,0.453 32.19,0.453 26.99,0 41.95,-10.66 41.95,-30.383 0,-20.863 -16.1,-32.879 -37.87,-34.011 3.18,-3.18 6.8,-7.711 10.66,-12.469 l 34.24,-41.5 z m -29.48,105.211 c -5.67,0 -9.3,-0.227 -12.7,-0.68 v -39.676 c 3.64,-0.23 8.62,-0.457 13.38,-0.457 15.65,0 25.63,8.391 25.63,21.539 0,12.926 -10.21,19.274 -26.31,19.274" /><path
         id="path92"
         style="fill:#514e4f;fill-opacity:1;fill-rule:nonzero;stroke:none"
         d="m 4654.24,485.383 c -35.59,0 -60.53,20.633 -60.53,58.5 0,35.148 24.25,62.582 64.61,62.582 11.79,0 23.13,-1.586 34.7,-5.215 l -2.5,-15.418 c -10.88,4.082 -21.77,6.578 -32.88,6.578 -24.26,0 -45.8,-15.422 -45.8,-46.711 0,-29.254 18.14,-45.574 44.9,-45.574 7.71,0 15.41,1.355 21.54,3.172 v 43.758 h 17.23 v -54.641 c -12.69,-4.539 -26.07,-7.031 -41.27,-7.031" /><path
         id="path94"
         style="fill:#ed192d;fill-opacity:1;fill-rule:nonzero;stroke:none"
         d="m 1255.39,243.629 -10.49,72.68 c -2.1,14.328 -2.97,23.062 -3.67,29.527 h -0.35 c -1.22,-4.895 -2.97,-11.703 -5.76,-19.742 l -27.6,-82.465 h -15.21 l -26.21,77.223 c -2.97,8.562 -6.11,17.82 -7.51,24.984 h -0.17 c -0.53,-9.434 -1.75,-18.867 -3.15,-30.922 l -8.56,-71.285 h -13.8 l 16.77,117.93 h 16.95 l 26.91,-79.668 c 2.96,-8.559 5.41,-16.422 6.64,-22.887 h 0.34 c 1.75,8.039 3.5,13.277 6.47,21.664 l 27.6,80.891 h 17.48 l 17.47,-117.93 h -14.15" /><path
         id="path96"
         style="fill:#ed192d;fill-opacity:1;fill-rule:nonzero;stroke:none"
         d="m 1303.09,346.188 c -5.07,0 -9.09,3.843 -9.09,8.906 0,4.894 4.02,8.91 9.09,8.91 4.88,0 9.08,-4.016 9.08,-8.91 0,-5.063 -4.2,-8.906 -9.08,-8.906 z m -6.64,-102.559 v 86.832 h 13.1 v -86.832 h -13.1" /><path
         id="path98"
         style="fill:#ed192d;fill-opacity:1;fill-rule:nonzero;stroke:none"
         d="m 1398.65,243.629 v 56.258 c 0,13.629 -3.67,21.492 -16.25,21.492 -15.55,0 -26.56,-15.379 -26.56,-35.992 v -41.758 h -13.09 v 86.832 h 12.92 c 0,-5.59 -0.53,-13.977 -1.4,-19.219 l 0.35,-0.172 c 4.9,12.578 15.9,21.137 31.1,21.137 19.92,0 26.03,-12.578 26.03,-27.953 v -60.625 h -13.1" /><path
         id="path100"
         style="fill:#ed192d;fill-opacity:1;fill-rule:nonzero;stroke:none"
         d="m 1451.59,346.188 c -5.07,0 -9.09,3.843 -9.09,8.906 0,4.894 4.02,8.91 9.09,8.91 4.89,0 9.09,-4.016 9.09,-8.91 0,-5.063 -4.2,-8.906 -9.09,-8.906 z m -6.64,-102.559 v 86.832 h 13.1 v -86.832 h -13.1" /><path
         id="path102"
         style="fill:#ed192d;fill-opacity:1;fill-rule:nonzero;stroke:none"
         d="m 1504.35,242.055 c -6.46,0 -13.1,0.699 -18.34,1.75 l 0.35,12.054 c 5.59,-1.57 12.57,-2.797 19.39,-2.797 12.58,0 21.32,5.59 21.32,14.68 0,20.965 -42.28,7.86 -42.28,38.781 0,14.504 11.87,25.508 33.89,25.508 5.42,0 11.53,-0.871 16.94,-1.918 l -0.34,-11.359 c -5.77,1.926 -12.06,2.969 -18,2.969 -12.75,0 -19.04,-5.239 -19.04,-13.801 0,-20.789 42.45,-8.906 42.45,-38.434 0,-15.375 -13.62,-27.433 -36.34,-27.433" /><path
         id="path104"
         style="fill:#ed192d;fill-opacity:1;fill-rule:nonzero;stroke:none"
         d="m 1593.28,242.23 c -17.47,0 -22.54,7.688 -22.54,25.688 v 52.234 h -18.86 v 10.309 h 18.86 v 28.828 l 13.11,3.672 v -32.5 h 25.51 v -10.309 h -25.51 v -46.82 c 0,-15.551 2.79,-19.57 13.1,-19.57 4.37,0 8.91,0.527 12.41,1.57 V 243.98 c -4.55,-1.05 -10.66,-1.75 -16.08,-1.75" /><path
         id="path106"
         style="fill:#ed192d;fill-opacity:1;fill-rule:nonzero;stroke:none"
         d="m 1674.88,319.102 c -19.23,3.148 -28.31,-11.528 -28.31,-40.707 v -34.766 h -13.1 v 86.832 h 12.92 c 0,-5.762 -0.69,-14.328 -1.92,-21.836 l 0.18,-0.176 c 3.49,12.754 12.58,25.684 30.74,23.582 l -0.51,-12.929" /><path
         id="path108"
         style="fill:#ed192d;fill-opacity:1;fill-rule:nonzero;stroke:none"
         d="m 1725.89,234.543 c -10.14,-26.731 -17.82,-35.641 -36.87,-35.641 -3.14,0 -7.51,0.352 -11,0.875 l 1.39,12.055 c 3.5,-1.227 6.99,-1.75 10.84,-1.75 10.48,0 15.72,4.895 22.54,23.238 l 4.01,10.309 -33.19,86.832 h 15.02 l 18.17,-49.793 c 2.8,-7.863 4.72,-14.152 6.64,-20.617 h 0.17 c 1.58,5.59 5.25,16.426 8.74,26.379 l 15.55,44.031 h 14.33 l -36.34,-95.918" /><path
         id="path110"
         style="fill:#ed192d;fill-opacity:1;fill-rule:nonzero;stroke:none"
         d="m 1850.45,242.055 c -23.23,0 -38.26,14.152 -38.26,44.55 0,24.813 15.38,45.426 41.41,45.426 21.14,0 38.44,-11.703 38.44,-43.5 0,-25.859 -15.9,-46.476 -41.59,-46.476 z m 1.93,79.148 c -13.63,0 -26.56,-10.308 -26.56,-33.547 0,-22.187 9.61,-34.418 26.56,-34.418 13.63,0 26.03,10.485 26.03,34.418 0,20.969 -8.74,33.547 -26.03,33.547" /><path
         id="path112"
         style="fill:#ed192d;fill-opacity:1;fill-rule:nonzero;stroke:none"
         d="m 1967.34,359.465 c -4.37,1.394 -9.08,1.922 -13.63,1.922 -13.28,0 -19.22,-7.688 -19.22,-24.461 v -6.465 h 25.69 v -10.309 h -25.69 v -76.523 h -13.1 v 76.523 h -18.87 v 10.309 h 18.87 v 6.117 c 0,24.281 12.06,35.465 32.85,35.465 4.88,0 9.61,-0.523 14.32,-1.574 l -1.22,-11.004" /><path
         id="path114"
         style="fill:#ed192d;fill-opacity:1;fill-rule:nonzero;stroke:none"
         d="m 2046.83,242.23 c -17.47,0 -22.54,7.688 -22.54,25.688 v 52.234 h -18.86 v 10.309 h 18.86 v 28.828 l 13.11,3.672 v -32.5 h 25.51 v -10.309 h -25.51 v -46.82 c 0,-15.551 2.79,-19.57 13.1,-19.57 4.37,0 8.91,0.527 12.41,1.57 V 243.98 c -4.55,-1.05 -10.66,-1.75 -16.08,-1.75" /><path
         id="path116"
         style="fill:#ed192d;fill-opacity:1;fill-rule:nonzero;stroke:none"
         d="m 2142.93,243.629 v 56.258 c 0,13.629 -3.68,21.492 -16.25,21.492 -15.55,0 -26.56,-15.379 -26.56,-35.992 v -41.758 h -13.1 v 127.539 h 13.1 v -42.457 c 0,-5.762 -0.35,-12.922 -1.4,-17.293 l 0.35,-0.176 c 5.07,12.754 15.9,20.965 30.93,20.965 19.91,0 26.02,-12.578 26.02,-27.953 v -60.625 h -13.09" /><path
         id="path118"
         style="fill:#ed192d;fill-opacity:1;fill-rule:nonzero;stroke:none"
         d="m 2252.64,289.75 h -58 c -0.87,-26.027 9.44,-36.863 28.83,-36.863 9.08,0 18.69,2.277 25.16,5.59 l 1.22,-11.18 c -8.04,-3.317 -17.82,-5.242 -28.65,-5.242 -26.22,0 -40.19,14.152 -40.19,44.55 0,26.036 13.97,45.426 38.09,45.426 23.93,0 33.89,-16.597 33.89,-35.816 0,-1.57 0,-3.84 -0.35,-6.465 z m -34.24,32.328 c -12.23,0 -20.96,-8.914 -23.06,-22.539 h 44.03 c 0.34,13.449 -7.69,22.539 -20.97,22.539" /><path
         id="path120"
         style="fill:#ed192d;fill-opacity:1;fill-rule:nonzero;stroke:none"
         d="m 2318.34,243.629 v 117.93 h 59.4 v -10.832 h -45.95 v -40.883 h 43.67 v -10.828 h -43.67 v -44.207 h 45.95 v -11.18 h -59.4" /><path
         id="path122"
         style="fill:#ed192d;fill-opacity:1;fill-rule:nonzero;stroke:none"
         d="m 2435.39,242.578 c -19.39,0 -37.55,8.567 -37.55,41.406 0,28.481 14.32,47.7 42.62,47.7 7.16,0 14.33,-1.047 20.44,-2.973 l -1.39,-11.527 c -5.76,2.269 -12.58,3.843 -19.92,3.843 -18.7,0 -27.95,-13.804 -27.95,-34.765 0,-17.824 5.58,-32.5 26.55,-32.5 7.69,0 16.07,1.922 21.85,4.89 l 1.21,-11.355 c -5.77,-2.274 -15.2,-4.719 -25.86,-4.719" /><path
         id="path124"
         style="fill:#ed192d;fill-opacity:1;fill-rule:nonzero;stroke:none"
         d="m 2511.57,242.055 c -23.23,0 -38.27,14.152 -38.27,44.55 0,24.813 15.39,45.426 41.41,45.426 21.15,0 38.44,-11.703 38.44,-43.5 0,-25.859 -15.9,-46.476 -41.58,-46.476 z m 1.92,79.148 c -13.62,0 -26.55,-10.308 -26.55,-33.547 0,-22.187 9.61,-34.418 26.55,-34.418 13.63,0 26.04,10.485 26.04,34.418 0,20.969 -8.74,33.547 -26.04,33.547" /><path
         id="path126"
         style="fill:#ed192d;fill-opacity:1;fill-rule:nonzero;stroke:none"
         d="m 2633.87,243.629 v 56.258 c 0,13.629 -3.67,21.492 -16.25,21.492 -15.55,0 -26.55,-15.379 -26.55,-35.992 v -41.758 h -13.11 v 86.832 h 12.93 c 0,-5.59 -0.52,-13.977 -1.39,-19.219 l 0.34,-0.172 c 4.89,12.578 15.91,21.137 31.1,21.137 19.92,0 26.04,-12.578 26.04,-27.953 v -60.625 h -13.11" /><path
         id="path128"
         style="fill:#ed192d;fill-opacity:1;fill-rule:nonzero;stroke:none"
         d="m 2709.87,242.055 c -23.23,0 -38.26,14.152 -38.26,44.55 0,24.813 15.38,45.426 41.4,45.426 21.15,0 38.44,-11.703 38.44,-43.5 0,-25.859 -15.9,-46.476 -41.58,-46.476 z m 1.92,79.148 c -13.62,0 -26.55,-10.308 -26.55,-33.547 0,-22.187 9.61,-34.418 26.55,-34.418 13.64,0 26.04,10.485 26.04,34.418 0,20.969 -8.74,33.547 -26.04,33.547" /><path
         id="path130"
         style="fill:#ed192d;fill-opacity:1;fill-rule:nonzero;stroke:none"
         d="m 2885.8,243.629 v 56.082 c 0,13.101 -3.14,21.668 -15.72,21.668 -13.27,0 -26.02,-13.805 -26.02,-36.344 v -41.406 h -12.93 v 56.258 c 0,11.883 -2.45,21.492 -15.74,21.492 -14.32,0 -26.02,-15.031 -26.02,-36.344 v -41.406 h -13.1 v 86.832 h 12.93 c 0,-5.59 -0.36,-13.801 -1.4,-19.219 l 0.35,-0.172 c 4.88,12.754 16.24,21.137 30.56,21.137 19.75,0 23.94,-14.148 24.29,-20.789 3.15,8.211 12.58,20.789 30.23,20.789 16.25,0 25.68,-8.734 25.68,-28.301 v -60.277 h -13.11" /><path
         id="path132"
         style="fill:#ed192d;fill-opacity:1;fill-rule:nonzero;stroke:none"
         d="m 2958.67,234.543 c -10.14,-26.731 -17.83,-35.641 -36.87,-35.641 -3.14,0 -7.51,0.352 -11,0.875 l 1.39,12.055 c 3.5,-1.227 6.99,-1.75 10.83,-1.75 10.49,0 15.73,4.895 22.54,23.238 l 4.03,10.309 -33.21,86.832 h 15.03 l 18.18,-49.793 c 2.79,-7.863 4.71,-14.152 6.64,-20.617 h 0.16 c 1.57,5.59 5.25,16.426 8.74,26.379 l 15.55,44.031 H 2995 l -36.33,-95.918" /><path
         id="path134"
         style="fill:#ed192d;fill-opacity:1;fill-rule:nonzero;stroke:none"
         d="m 121.957,388.43 c 0,0 119.191,-97.508 176.305,-7.981 0,0 19.945,32.086 24.691,66.074 0,0 0.824,31.219 31.535,47.969 0,0 3.367,-44.828 45.231,-63.594 3.429,-1.523 6.625,-3.011 10.125,-2.3 0,0 0.14,2.8 -5.766,6.425 -7.215,4.375 -8.902,2.789 -10.769,4.375 -9.649,8.192 -20.532,19.391 -21.141,28.512 l 28.559,-12.195 c 0,0 19.543,-6.051 21.73,-33.82 0,0 2.355,-20.352 13.418,-37.84 0,0 -67.207,6.824 -107.555,-67.879 l -5.054,8.406 c 0,0 -0.668,-24.293 -15.789,-32.969 0,0 -2.766,15.625 -13.157,18.18 0,0 -1.8,-25.254 -19.761,-35.773 0,0 3.007,15.605 -9.028,22.554 0,0 -16.504,-35.031 -48.191,-33.629 0,0 5.879,12.125 1.66,28.965 0,0 -32.621,-31.351 -62.184,-18.578 0,0 13.727,10.926 13.262,34.281 0,0 -38.625,-21.84 -74.4686,31.332 0,0 9.6916,-9.89 40.9136,6.762 0,0 -19.105,22.492 -14.566,42.723" /><path
         id="path136"
         style="fill:#ed192d;fill-opacity:1;fill-rule:nonzero;stroke:none"
         d="m 172.559,913.234 c 0,0 40.589,-8.007 7.953,-79.172 0,0 -14.766,-55.874 16.832,-81.062 0,0 4.875,-4.719 8.933,-11.973 0,0 -40.019,-14.304 -12.89,-87.328 0,0 -26.274,8.278 -36.309,25.653 0,0 6.637,3.07 9.43,16.074 0,0 -21,-9.156 -37.477,13.054 l 19.235,13.028 c 0,0 -16.887,0.535 -36.633,27.801 l 23.699,9.457 c 0,0 -25.035,4.437 -33.305,29.601 l 22.293,0.063 c 0,0 -19.574,34.711 -14.023,54.281 0,0 15.172,-13.586 27.785,-14.766 0,0 12.234,17.407 -4.52,37.016 0,0 -8.078,15.574 1.926,37.441 0,0 0.153,-3.726 14.207,-6.636 0,0 14.348,0.246 22.567,-30.711 l 2.933,2.879 c 0,0 -13.183,23.519 -2.636,45.3" /><path
         id="path138"
         style="fill:#ed192d;fill-opacity:1;fill-rule:nonzero;stroke:none"
         d="m 503.344,487.98 25.164,2.196 c 0,0 120.734,15.793 118.797,174.16 0,0 -3.797,92.355 -71.582,135.629 -5.274,3.387 -15.543,10.984 -26.524,14.273 -11.203,3.321 -34.449,8.438 -53.433,-3.914 -7.184,-4.187 -14.754,-14.449 -16.957,-21.652 -2.266,-7.164 -4.684,-27.793 23.472,-51.184 l 10.789,13.34 c 0,0 -19.894,14.051 -13.953,28.879 5.965,14.797 19.367,13.559 20.75,13.625 16.235,1.172 71.633,-2.984 101.625,-107.496 0,0 17.793,-81.957 -43.012,-145.465 0,0 9.993,38.809 -34.726,105.012 0,0 -39.336,55.34 14.781,124.242 l -17.246,11.172 c 0,0 -68.773,-81.067 -12.406,-149.938 0,0 44.359,-54.004 26.117,-89.687 -4.098,-7.938 -13.09,-17.613 -22.848,-20.34 -9.785,-2.703 -37.507,-8.848 -37.507,-8.848 l 8.699,-24.004" /><path
         id="path140"
         style="fill:#ed192d;fill-opacity:1;fill-rule:nonzero;stroke:none"
         d="m 568.184,813.277 c 0,0 30.527,37.661 122.91,47.368 0,0 5.523,-25.997 -45.266,-41.915 0,0 2.238,-9.769 46.227,1.247 0,0 -17.309,-40.512 -70.375,-21.254 0,0 -22.336,7.664 -37.969,1.957 l -15.527,12.597" /><path
         id="path142"
         style="fill:#ed192d;fill-opacity:1;fill-rule:nonzero;stroke:none"
         d="m 359.871,983.746 c 0,0 18.274,-8.848 17.512,-42.164 l 82.301,-29.965 c 0,0 8.457,22.274 41.23,32.758 0,0 -3.195,5.582 -24.976,2.051 0,0 -4.106,7.285 -16.676,9.238 0,0 -4.528,-6.199 0.902,-18.926 0,0 -11.941,-6.015 -14.891,-8.929 0,0 -3.707,8.566 -7.816,15.328 0,0 15.512,4.367 15.586,16.566 0,0 -6.93,-3.351 -10.563,-2.207 0,0 11.805,15.609 -4.746,28.793 0,0 -11.039,-7.949 -13.058,-23.707 0,0 -8.406,6.641 -14.426,7.477 0,0 -3.352,-7.661 1.488,-21.336 0,0 -4.125,-6.77 -12.64,-7.852 0,0 -9.231,3.785 -12.395,15.199 l 6.672,0.184 c 0,0 6.641,3.355 8.594,7.137 0,0 -5.246,3.41 -13.496,3.132 l -0.59,2.176 1.863,0.336 c 0,0 0.57,20.356 -29.875,14.711" /><path
         id="path144"
         style="fill:#ed192d;fill-opacity:1;fill-rule:nonzero;stroke:none"
         d="m 640.961,251.465 c -3.785,8.254 -7.039,18.18 -7.039,18.18 l 26.211,-0.465 c -24.195,0.656 -25.871,42.558 -25.871,42.558 -6.207,35.18 14.922,57.422 14.922,57.422 -68.172,-1.949 -84.879,40.149 -84.879,40.149 -32.11,31.23 -42.657,105.351 -42.657,105.351 0,0 -1.671,6.824 -4.277,11.262 -2.933,4.961 -4.473,7.312 -11.262,14.113 -10.05,10.078 -45.507,32.11 -50.039,35.27 -19.804,13.953 -30.101,30.183 -30.101,30.183 -11.731,-14.793 -27.199,-18.554 -27.199,-18.554 l -1.918,4.996 c 65.066,41.234 39.578,104.824 39.578,104.824 2.453,13.277 12.843,30.996 12.843,30.996 45.868,61.328 13.872,148.562 13.872,148.562 12.656,20.692 -3.754,23.391 -3.754,23.391 -16.786,3.602 -17.516,-4.312 -17.516,-4.312 l -2.375,0.222 -1.004,2.075 -46.891,17.246 c -15.234,8.164 -22.878,6.082 -22.878,6.082 -0.946,-8.965 1.644,-13.184 1.644,-13.184 3.52,-2.703 7.789,-1.801 7.789,-1.801 16.824,4.688 24.555,-8.16 24.555,-8.16 l -2.594,-2.543 c -4.668,5.215 -9.508,4.867 -9.508,4.867 -11.758,1.489 -11.23,-5.703 -11.23,-5.703 -4.125,-5.586 -5.891,0.965 -5.891,0.965 l -1.48,5.672 c -12.828,2.793 -10.813,20.101 -10.813,20.101 -21.59,-1.179 -41.765,-8.437 -41.765,-8.437 -7.383,-2.481 -5.493,-7.844 -5.493,-7.844 l 6.348,-8.937 -3.215,-12.844 c -7.34,-19.168 13.262,-19.879 13.262,-19.879 l 28.59,-0.285 c 22.254,-4.469 7.008,-18.957 7.008,-18.957 0.453,-24.692 -13.356,-19.418 -13.356,-19.418 -19.34,14.551 -29.668,1.582 -29.668,1.582 -5.941,-12.566 8.344,-12.715 8.344,-12.715 28.555,-0.687 10.684,-21.656 10.684,-21.656 -6.622,-15.727 -25.418,-12.754 -25.418,-12.754 -45.282,4.621 -53.317,-17.309 -53.317,-17.309 -16.285,-17.156 -14.488,-65.828 -14.488,-65.828 -11.602,28.946 1.523,63.098 1.523,63.098 -41.101,-14.453 -26.398,-90.949 -26.398,-90.949 -19.207,41.125 -6.145,66.132 -6.145,66.132 -37.461,-5.246 -26.246,-59.968 -26.246,-59.968 l 14.239,-34.68 -38.438,-19.914 C 136.246,602.695 117.059,618.391 117.059,618.391 61.0508,670.168 0,620.598 0,620.598 30.2305,599.91 64.1367,609.43 64.1367,609.43 55.7891,596.68 20.957,581.254 20.957,581.254 c 59.4336,-23.418 76.6719,3.605 76.6719,3.605 7.6721,-24.195 -5.543,-38.058 -5.543,-38.058 22.8941,-6.117 50.5981,22.332 50.5981,22.332 -2.45,-13.305 -12.625,-24.293 -12.625,-24.293 21.109,0.433 44.668,27.242 44.668,27.242 1.574,-13.277 -7.301,-23.144 -7.301,-23.144 28.691,4.863 45.031,30.769 45.031,30.769 1.035,-14.426 -7.262,-26.367 -7.262,-26.367 16.52,2.051 28.493,15.64 28.493,15.64 -31.536,24.008 -23.93,41.567 -23.93,41.567 9.535,-38.254 42.793,-44.145 42.793,-44.145 26.664,4.653 43.07,48.457 43.07,48.457 20.754,43.395 46.195,39.028 46.195,39.028 -30.527,-11.856 -32.73,-31.117 -32.73,-31.117 -11.445,-45.891 -28.57,-51.965 -28.57,-51.965 5.789,-17.465 43.836,-27.18 43.836,-27.18 9.71,-4.672 24.101,-12.34 31.332,-16.066 61.855,-31.668 67.41,-87.735 67.41,-87.735 9.308,-59.148 55.715,-73.027 55.715,-73.027 90.55,-29.652 83.48,-93.652 83.48,-93.652 -4.695,-96.063 -63.172,-131.934 -63.172,-131.934 l 1.563,-0.277 c 16.593,-5.129 26.742,1.089 26.742,1.089 5.023,-13.988 0.414,-25.5 0.414,-25.5 47.949,7.071 72.301,59.243 72.301,59.243 12.812,-16.278 30.992,-16.782 30.992,-16.782 -12.813,19.883 -8.938,61.641 -8.938,61.641 l 18.364,-12.031 -9.055,22.328 -3.445,14.219 c 6.922,-6.993 21.914,-12.375 21.914,-12.375 -0.785,4.062 -5.176,10.535 -9.008,18.699 z M 383.852,891.422 c 0,0 2.945,3.164 4.218,-0.406 l 0.899,-1.395 -1.672,-0.898 c 0,0 -1.805,0.433 -5.184,-1.645 0,0 -3.336,-1.832 -5.398,2.078 z m -52.895,-311.488 -17.59,-6.34 -5.676,1.586 1.489,1.461 7.539,1.394 c 21.5,12.063 31.64,49.789 31.64,49.789 15.313,36.199 41.586,39.34 41.586,39.34 l 2.375,-3.141 -4.156,-1.73 c -26.418,-10.52 -29.656,-39.367 -29.656,-39.367 -1.059,-37.043 -27.551,-42.992 -27.551,-42.992 z m 25.438,3.164 -3.133,3.468 c 25.562,9.555 32.699,38.036 32.699,38.036 9.215,47.336 35.254,47.832 35.254,47.832 l -3.332,-4.157 c -17.61,-6.851 -20.789,-38.621 -20.789,-38.621 -1.176,-40.449 -40.699,-46.558 -40.699,-46.558" /><path
         id="path146"
         style="fill:#ed192d;fill-opacity:1;fill-rule:nonzero;stroke:none"
         d="m 358.133,496.543 c 0,0 24.851,12.773 38.961,-14.988 l 12.414,-22.028 c 0,0 7.539,-11.226 8.031,-14.261 0,0 -4.934,11.015 -25.187,17.238 0,0 -32.157,11.359 -34.219,34.039" /><path
         id="path148"
         style="fill:#ed192d;fill-opacity:1;fill-rule:nonzero;stroke:none"
         d="m 377.832,934.914 -0.156,-4.496 66.015,-25.254 8.094,4.281 -73.953,25.469" /><path
         id="path150"
         style="fill:#ed192d;fill-opacity:1;fill-rule:nonzero;stroke:none"
         d="m 278.793,901.504 c 0,0 1.519,-51.555 48.258,-50.906 0,0 5.301,5.863 35.144,-9.371 l -1.953,-6.977 c 0,0 -10.859,11.629 -32.137,7.781 0,0 -29.378,-10.793 -49.16,4.563 0,0 -30.507,25.129 -0.152,54.91" /><path
         id="path152"
         style="fill:#514e4f;fill-opacity:1;fill-rule:nonzero;stroke:none"
         d="m 886.113,0 h 20 v 1091.05 h -20 z" /></g></g></svg>