<?xml version="1.0" encoding="UTF-8" standalone="no"?>
<svg width="166px" height="54px" viewBox="0 0 166 54" version="1.1" xmlns="http://www.w3.org/2000/svg" xmlns:xlink="http://www.w3.org/1999/xlink" xmlns:sketch="http://www.bohemiancoding.com/sketch/ns">
    <!-- Generator: Sketch 3.4 (15575) - http://www.bohemiancoding.com/sketch -->
    <title>oat</title>
    <desc>Created with Sketch.</desc>
    <defs>
        <path id="path-1" d="M0.06,0.396 L165.861,0.396 L165.861,53.94 L0.06,53.94 L0.06,0.396 Z"></path>
    </defs>
    <g id="Page-1" stroke="none" stroke-width="1" fill="none" fill-rule="evenodd" sketch:type="MSPage">
        <g id="OAT_cmyk" sketch:type="MSLayerGroup">
            <g id="Group-3">
                <mask id="mask-2" sketch:name="Clip 2" fill="white">
                    <use xlink:href="#path-1"></use>
                </mask>
                <g id="Clip-2"></g>
                <path d="M34.518,32.35 L34.518,32.198 C34.518,25.264 29.225,19.517 21.717,19.517 C14.051,19.517 9.149,25.188 9.149,32.05 L9.149,32.198 C9.149,39.062 14.44,44.886 21.874,44.886 C29.619,44.886 34.518,39.136 34.518,32.35 L34.518,32.35 Z M0,32.36 L0,32.198 C0,20.232 9.307,10.324 21.874,10.324 C34.438,10.324 43.672,20.071 43.672,32.038 L43.672,32.198 C43.672,44.09 34.361,54 21.72,54 C9.232,54 0,44.246 0,32.36 L0,32.36 Z" id="Fill-1" fill="#006FAC" sketch:type="MSShapeGroup" mask="url(#mask-2)"></path>
            </g>
            <path d="M16.808,25.689 C20.401,22.92 25.577,23.577 28.345,27.177 C31.125,30.773 30.46,35.942 26.856,38.721 C23.264,41.494 18.099,40.833 15.323,37.238 C12.542,33.641 13.208,28.473 16.808,25.689" id="Fill-4" fill="#D4CCC0" sketch:type="MSShapeGroup"></path>
            <path d="M47.241,32.265 L47.241,32.147 C47.241,27.595 51.017,23.978 55.436,23.978 C59.91,23.978 63.694,27.595 63.694,32.147 L63.694,32.265 C63.694,36.815 59.976,40.436 55.436,40.436 C50.958,40.436 47.241,36.815 47.241,32.265" id="Fill-5" fill="#D4CCC0" sketch:type="MSShapeGroup"></path>
            <path d="M93.902,35.46 C91.497,34.527 88.165,33.829 84.517,33.829 C78.622,33.829 75.131,36.232 75.131,40.188 L75.131,40.344 C75.131,44.223 78.622,46.397 83.039,46.397 C89.249,46.397 93.902,42.901 93.902,37.783 L93.902,35.46 L93.902,35.46 Z M93.671,52.602 L93.671,47.556 C90.879,50.893 86.611,53.457 80.406,53.457 C72.65,53.457 65.824,49.032 65.824,40.811 L65.824,40.654 C65.824,31.577 72.879,27.235 82.424,27.235 C87.389,27.235 90.566,27.932 93.748,28.942 L93.748,28.165 C93.748,22.506 90.18,19.402 83.665,19.402 C79.088,19.402 75.673,20.409 71.952,21.959 L69.393,14.438 C73.888,12.422 78.312,11.022 84.983,11.022 C97.085,11.022 102.982,17.385 102.982,28.321 L102.982,52.602 L93.671,52.602 L93.671,52.602 Z" id="Fill-6" fill="#006FAC" sketch:type="MSShapeGroup"></path>
            <path d="M107.279,32.265 L107.279,32.147 C107.279,27.595 111.055,23.978 115.475,23.978 C119.957,23.978 123.736,27.595 123.736,32.147 L123.736,32.265 C123.736,36.815 120.015,40.436 115.475,40.436 C111.001,40.436 107.279,36.815 107.279,32.265" id="Fill-7" fill="#D4CCC0" sketch:type="MSShapeGroup"></path>
            <path d="M129.674,41.276 L129.674,19.712 L124.477,19.712 L124.477,11.643 L129.674,11.643 L129.674,0.396 L139.056,0.396 L139.056,11.643 L150.069,11.643 L150.069,19.712 L139.056,19.712 L139.056,39.8 C139.056,43.449 140.918,44.92 144.097,44.92 C146.195,44.92 148.053,44.454 149.918,43.524 L149.918,51.208 C147.593,52.522 144.952,53.297 141.462,53.297 C134.561,53.297 129.674,50.274 129.674,41.276" id="Fill-8" fill="#006FAC" sketch:type="MSShapeGroup"></path>
            <path d="M149.403,32.265 L149.403,32.147 C149.403,27.595 153.186,23.978 157.603,23.978 C162.075,23.978 165.861,27.595 165.861,32.147 L165.861,32.265 C165.861,36.815 162.137,40.436 157.603,40.436 C153.125,40.436 149.403,36.815 149.403,32.265" id="Fill-9" fill="#D4CCC0" sketch:type="MSShapeGroup"></path>
        </g>
    </g>
</svg>